<?xml version="1.0" encoding="utf-8"?>
<!-- Generator: Adobe Illustrator 27.7.0, SVG Export Plug-In . SVG Version: 6.00 Build 0)  -->
<svg version="1.1" id="Capa_1" xmlns="http://www.w3.org/2000/svg" xmlns:xlink="http://www.w3.org/1999/xlink" x="0px" y="0px"
	 viewBox="0 0 70.3 59.9" style="enable-background:new 0 0 70.3 59.9;" xml:space="preserve">
<style type="text/css">
	.st0{fill:#CFB588;}
</style>
<path class="st0" d="M15.1,1.1L16,0.2c0.2-0.2,0.6-0.2,0.9,0L38.7,22c0.2,0.2,0.2,0.6,0,0.9l-0.9,0.9c-0.2,0.2-0.6,0.2-0.9,0
	L15.1,1.9C14.9,1.7,14.9,1.3,15.1,1.1z"/>
<path class="st0" d="M66.8,25.3c-13-14.6-22.9-2.7-32.6,6.9c-0.2,0.3-0.7,0.3-0.9,0c0,0,0,0,0,0l-0.9-0.9c-0.3-0.3-0.3-0.6,0-0.9
	c4.7-4.4,10.3-11,15.7-13.2c8.4-3.3,16.5,1.3,22,8c0.2,0.2,0.2,0.4,0,0.6c-7.8,9.8-20.5,13.4-29.5,2.6c-0.2-0.3-0.2-0.7,0.1-1
	l0.9-0.9c0.3-0.3,0.6-0.3,0.9,0c7.2,9.2,17,6.5,24.4-0.6C67,25.8,67,25.5,66.8,25.3z"/>
<path class="st0" d="M50.5,24.2c-0.4,0.3-0.3,0.7,0.2,0.9c0.5,0.1,1.1,0,1.5-0.3l4.4-3.4c0.2-0.1,0.4-0.1,0.5,0.1
	c0,0.1,0.1,0.1,0.1,0.2v0.5c0,0.1-0.1,0.3-0.2,0.3l-1.9,1.6c-0.2,0.2-0.2,0.4-0.1,0.6c0.1,0.1,0.2,0.2,0.3,0.2
	c1.6,0,3.1-0.1,4.5-0.2c0.8-0.1,1.3,0.1,1.5,0.6c0.1,0.3,0,0.7-0.3,0.8c-0.1,0-0.2,0.1-0.3,0.1L55.5,26c-0.2,0-0.4,0.2-0.4,0.4
	c0,0.1,0,0.2,0.1,0.3l2.3,2.2c0.2,0.2,0.2,0.5,0,0.7c-0.2,0.2-0.4,0.2-0.6,0.1c-1.6-1.1-4.5-4.4-6.4-3.6c-0.2,0.1-0.3,0.4-0.2,0.6
	c0,0,0.1,0.1,0.1,0.1l2.6,2.7c0.2,0.2,0.2,0.5,0,0.7c-0.4,0.4-0.8,0.5-1,0.2c-1.1-1.3-2.2-2.5-3.3-3.8c-0.3-0.3-0.6-0.4-0.9-0.4
	l-3.5,0c-0.4,0-0.7-0.3-0.7-0.7c0-0.4,0.3-0.7,0.7-0.7l3.9,0c0.3,0,0.6-0.1,0.8-0.3l2.6-2.6c0.2-0.2,0.4-0.4,0.7-0.6
	c0.3-0.2,0.6-0.2,0.9-0.1c0.3,0.2,0.4,0.5,0.2,0.8c0,0-0.1,0.1-0.1,0.1L50.5,24.2z"/>
<path class="st0" d="M3.9,34.6c6.7,5.8,18.7,11,24.4,0.3c0.2-0.3,0.6-0.5,0.9-0.3c0.1,0,0.2,0.1,0.2,0.2l0.7,0.9
	c0.2,0.3,0.2,0.5,0.1,0.8c-7.5,12.7-22.5,5.9-30.1-2c-0.2-0.2-0.2-0.4,0-0.6c6.6-6.7,17.2-13.2,26.4-6.7c1.6,1.1,4.2,3.6,7.6,7.4
	c7.1,7.7,14.1,15.5,21.1,23.3c0.3,0.3,0.3,0.6,0,0.9l-0.9,0.9c-0.2,0.2-0.5,0.2-0.7,0C44.8,51,36.9,40.9,28,32
	c-8.2-8.3-16.5-4.9-24.2,1.8C3.6,34,3.6,34.3,3.9,34.6z"/>
<path class="st0" d="M20.3,33.2l-2.9-2.9c-0.2-0.2-0.2-0.5,0-0.7c0.2-0.1,0.4-0.2,0.6-0.2c0.2,0,0.4,0.1,0.5,0.3
	c1.1,1.2,2.2,2.3,3.4,3.4c0.2,0.2,0.5,0.3,0.8,0.3l3.7,0.1c0.3,0,0.5,0.2,0.5,0.5c0,0.1,0,0.1-0.1,0.2c-0.3,0.6-0.9,0.9-1.7,0.7
	c-0.8-0.1-1.6-0.2-2.4-0.1c-0.3,0-0.6,0.2-0.9,0.4c-1.1,1.2-2.4,2.4-3.6,3.5c-0.3,0.2-0.7,0.3-1,0c-0.3-0.2-0.3-0.6,0-0.8l2.7-2.5
	c0.2-0.2,0.3-0.6,0.1-0.8c-0.2-0.2-0.4-0.3-0.7-0.2c-2,0.7-3.7,1.9-5.2,3.6c-0.2,0.2-0.5,0.2-0.7,0c0,0,0,0,0,0l-0.3-0.2
	c-0.2-0.2-0.2-0.4,0-0.6l1.9-1.9c0.4-0.4,0.3-0.6-0.3-0.6c-1.8,0.1-3.5,0.1-5.1,0.1c-1,0-1.2-0.4-0.6-1.3c0.1-0.1,0.3-0.2,0.4-0.2
	l5.6,0.1c0.2,0,0.4-0.2,0.4-0.4c0-0.1,0-0.2-0.1-0.3L13.2,31c-0.2-0.2-0.2-0.5-0.1-0.6c0.1-0.1,0.2-0.2,0.4-0.2h0.6
	c0.3,0,0.5,0.1,0.7,0.3c1.3,1.8,3,2.9,5.2,3.3c0.2,0,0.4-0.1,0.4-0.3C20.4,33.4,20.4,33.3,20.3,33.2z"/>
</svg>
