<?xml version="1.0" encoding="UTF-8"?>
<svg id="Capa_1" data-name="Capa 1" xmlns="http://www.w3.org/2000/svg" xmlns:xlink="http://www.w3.org/1999/xlink" viewBox="0 0 651.97 496.06">
  <defs>
    <linearGradient id="Degradado_sin_nombre_49" data-name="Degradado sin nombre 49" x1="241.79" y1="345.48" x2="416.66" y2="42.6" gradientUnits="userSpaceOnUse">
      <stop offset=".02" stop-color="#a9aaa9" stop-opacity="0"/>
      <stop offset=".12" stop-color="#a9aaa9"/>
      <stop offset=".5" stop-color="#a9aaa9"/>
      <stop offset=".89" stop-color="#a9aaa9"/>
      <stop offset=".99" stop-color="#a9aaa9" stop-opacity="0"/>
    </linearGradient>
  </defs>
  <g>
    <line class="cls-13" x1="568.31" y1="216.02" x2="581.82" y2="216.02"/>
    <polygon class="cls-53" points="150.93 464.99 151.39 462.05 174.59 455.21 183.7 434.27 200.91 427.16 272.35 417.99 321.88 422.82 338.47 410.32 353.77 194.17 358.08 192.03 341.9 412.39 322.87 426.73 272.4 421.81 201.56 430.91 186.36 437.25 177.69 457.5 150.93 464.99"/>
    <polygon class="cls-53" points="112.63 414.17 96.58 199.69 101.08 199.38 116.74 416.47 112.63 414.17"/>
    <polygon class="cls-12" points="47.37 497.01 45.04 490.92 59.1 465.71 68.11 452.39 86.37 409.78 108.44 407.62 153.47 430.13 157.38 444.91 157.34 445.29 152.95 487.95 150.11 496.9 146.1 495.63 148.82 487.09 153.12 445.24 149.89 433.04 107.65 411.92 89.26 413.72 71.82 454.41 62.63 467.99 49.67 491.25 51.3 495.51 47.37 497.01"/>
    <text class="cls-9" transform="translate(88.55 464.99)"><tspan x="0" y="0">MÉRIDA</tspan></text>
    <path class="cls-17" d="m337.02,415.84l227.32-36.92c9.35-1.5,16.3-9.46,16.51-18.93l3.88-172.67"/>
    <rect class="cls-53" x="347.45" y="306.94" width="54.81" height="3.49"/>
    <g>
      <path class="cls-10" d="m337.68,403.54c-4.27,0-7.74,3.47-7.74,7.74,0,5.98,6.98,12.23,7.28,12.49.27.23.66.23.93,0,.3-.26,7.28-6.51,7.28-12.49,0-4.27-3.47-7.74-7.74-7.74m0,11.26c-1.94,0-3.52-1.58-3.52-3.52s1.58-3.52,3.52-3.52,3.52,1.57,3.52,3.52c.02,1.94-1.55,3.53-3.49,3.55h-.03v-.03Z"/>
      <path class="cls-20" d="m337.68,417.48c-3.43,0-6.21-2.78-6.21-6.21s2.78-6.21,6.21-6.21,6.21,2.78,6.21,6.21c.03,3.43-2.73,6.24-6.16,6.26-.02,0-.03,0-.05,0v-.05Z"/>
      <path class="cls-2" d="m341.1,410.74l-3.16-3.49c-.06-.06-.13-.09-.22-.09s-.16.03-.22.09l-3.26,3.51c-.08.09-.1.21-.05.32.05.11.15.18.27.18h.84v2.53c0,.28.22.51.5.51h.6c.19,0,.34-.15.34-.34v-1.27c0-.19.15-.34.34-.34h1.18c.19,0,.34.15.34.34v1.27c0,.19.15.34.34.34h.58c.28,0,.51-.23.51-.51v-2.53h.87c.16,0,.3-.13.3-.3,0-.09-.04-.17-.1-.22"/>
    </g>
    <g>
      <path class="cls-10" d="m358.08,156.12c-4.27,0-7.74,3.47-7.74,7.74,0,5.98,6.98,12.23,7.28,12.49.27.23.66.23.93,0,.3-.26,7.28-6.51,7.28-12.49,0-4.27-3.47-7.74-7.74-7.74m0,11.26c-1.94,0-3.52-1.58-3.52-3.52s1.58-3.52,3.52-3.52,3.52,1.57,3.52,3.52c.02,1.94-1.55,3.53-3.49,3.55h-.03v-.03Z"/>
      <path class="cls-20" d="m358.08,170.06c-3.43,0-6.21-2.78-6.21-6.21s2.78-6.21,6.21-6.21,6.21,2.78,6.21,6.21c.03,3.43-2.73,6.24-6.16,6.26-.02,0-.03,0-.05,0v-.05Z"/>
      <path class="cls-1" d="m358.64,168.82c-.28-1.71.28-3.73,1.29-5.94.06.22.08.46.06.67.08-.08.16-.16.28-.16l-.32.44.38-.24c-.1.18-.24.32-.38.44.14-.02.3-.08.46-.18-.22.14-.34.32-.38.52l.32-.26c-.34.32-.12.62-.22.79.38-.3.64-.72.6-1.53.12.16.24.28.36.36,0-.12.02-.22.08-.3-.02.22.02.4.08.54l.1-.46c.04.18.02.38-.02.56.1-.08.18-.18.26-.36-.06.36-.02.54.06.62l.04-.42c.08.38.22.62.4.73,0-.83-.22-1.65-1.23-2.34.2.02.4.04.62,0l-.14-.3.4.36-.18-.42c.12.18.26.3.38.38,0-.16-.06-.28-.14-.42.14.2.3.34.52.38l-.26-.32c.34.32.56.12.77.2-.85-1.11-1.81-.6-2.6-.1-.08-1.25-.52-1.49-1.19-1.69l.18.34.28.14-.22-.04c.02.08.14.14.34.2-.16-.02-.24,0-.24.06.14,0,.24.06.34.16l-.26-.06c.08.1.18.16.3.2l-.22-.04c.08.22.2.42.34.6-.5-.54-1.07-.75-1.71-.52-.62-.24-1.21-.02-1.71.52.16-.18.28-.38.36-.6l-.22.04c.12-.04.22-.1.3-.2l-.26.06c.1-.1.2-.16.34-.16-.02-.06-.08-.08-.24-.06.18-.06.3-.12.34-.2l-.24.04.3-.14.16-.34c-.66.2-1.09.44-1.17,1.69-.81-.5-1.75-1.01-2.6.1.2-.08.44.12.77-.2l-.28.32c.22-.04.4-.18.54-.38-.08.14-.14.26-.16.42.14-.08.28-.2.4-.38l-.2.42.4-.36-.12.3c.22.04.4.02.6,0-.99.69-1.21,1.51-1.23,2.34.2-.12.34-.36.42-.73l.04.42c.08-.08.12-.26.06-.62.06.18.16.28.26.36-.06-.18-.06-.38-.02-.56l.1.46c.06-.14.08-.32.08-.54.06.08.08.18.06.3.14-.08.26-.2.38-.36-.06.81.22,1.23.58,1.53-.08-.18.14-.48-.22-.79l.34.26c-.06-.2-.18-.38-.4-.52.18.1.34.16.46.18-.14-.12-.26-.26-.36-.44l.38.24-.32-.44c.1,0,.18.08.26.16,0-.22,0-.46.06-.67,1.01,2.2,1.59,4.23,1.31,5.94h.97Zm-.79-7.21h.02c.2.1.38.1.56,0h.02s-.1.1-.16.18c.14.02.28-.04.42-.14l-.14.2c.1.02.22-.02.36-.12l-.18.2c.12.02.24-.02.36-.12l-.14.22c.18.02.36.06.56.14-.66.12-1.05.36-1.37.67-.3-.32-.69-.56-1.35-.67.2-.08.38-.12.56-.14l-.14-.22c.12.1.24.14.36.12l-.18-.2c.14.1.24.14.36.12l-.16-.2c.16.1.3.16.42.14-.04-.08-.1-.14-.16-.18m-.06,1.71l-.06.12-.06-.38.12.26Zm-.08.12l-.14.28c.14-.06.34-.06.48-.28l.08.1-.02.06.04-.02.06.02-.02-.06.06-.1c.16.22.36.22.5.28l-.16-.28.24-.4-.02.28c.34-.1.68-.26,1.01-.44-.87,1.07-1.39,2.2-1.67,3.43-.26-1.23-.77-2.36-1.65-3.43.34.18.66.34,1.01.44l-.04-.28.24.4Zm.81-.12l.12-.26-.06.38-.06-.12Z"/>
    </g>
    <g>
      <path class="cls-10" d="m585.44,151.03c-4.27,0-7.74,3.47-7.74,7.74,0,5.98,6.98,12.23,7.28,12.49.27.23.66.23.93,0,.3-.26,7.28-6.51,7.28-12.49,0-4.27-3.47-7.74-7.74-7.74m0,11.26c-1.94,0-3.52-1.58-3.52-3.52s1.58-3.52,3.52-3.52,3.52,1.57,3.52,3.52c.02,1.94-1.55,3.53-3.49,3.55h-.03v-.03Z"/>
      <path class="cls-20" d="m585.44,164.97c-3.43,0-6.21-2.78-6.21-6.21s2.78-6.21,6.21-6.21,6.21,2.78,6.21,6.21c.03,3.43-2.73,6.24-6.16,6.26-.02,0-.03,0-.05,0v-.05Z"/>
      <path class="cls-1" d="m586,163.72c-.28-1.71.28-3.73,1.29-5.94.06.22.08.46.06.67.08-.08.16-.16.28-.16l-.32.44.38-.24c-.1.18-.24.32-.38.44.14-.02.3-.08.46-.18-.22.14-.34.32-.38.52l.32-.26c-.34.32-.12.62-.22.79.38-.3.64-.72.6-1.53.12.16.24.28.36.36,0-.12.02-.22.08-.3-.02.22.02.4.08.54l.1-.46c.04.18.02.38-.02.56.1-.08.18-.18.26-.36-.06.36-.02.54.06.62l.04-.42c.08.38.22.62.4.73,0-.83-.22-1.65-1.23-2.34.2.02.4.04.62,0l-.14-.3.4.36-.18-.42c.12.18.26.3.38.38,0-.16-.06-.28-.14-.42.14.2.3.34.52.38l-.26-.32c.34.32.56.12.77.2-.85-1.11-1.81-.6-2.6-.1-.08-1.25-.52-1.49-1.19-1.69l.18.34.28.14-.22-.04c.02.08.14.14.34.2-.16-.02-.24,0-.24.06.14,0,.24.06.34.16l-.26-.06c.08.1.18.16.3.2l-.22-.04c.08.22.2.42.34.6-.5-.54-1.07-.75-1.71-.52-.62-.24-1.21-.02-1.71.52.16-.18.28-.38.36-.6l-.22.04c.12-.04.22-.1.3-.2l-.26.06c.1-.1.2-.16.34-.16-.02-.06-.08-.08-.24-.06.18-.06.3-.12.34-.2l-.24.04.3-.14.16-.34c-.66.2-1.09.44-1.17,1.69-.81-.5-1.75-1.01-2.6.1.2-.08.44.12.77-.2l-.28.32c.22-.04.4-.18.54-.38-.08.14-.14.26-.16.42.14-.08.28-.2.4-.38l-.2.42.4-.36-.12.3c.22.04.4.02.6,0-.99.69-1.21,1.51-1.23,2.34.2-.12.34-.36.42-.73l.04.42c.08-.08.12-.26.06-.62.06.18.16.28.26.36-.06-.18-.06-.38-.02-.56l.1.46c.06-.14.08-.32.08-.54.06.08.08.18.06.3.14-.08.26-.2.38-.36-.06.81.22,1.23.58,1.53-.08-.18.14-.48-.22-.79l.34.26c-.06-.2-.18-.38-.4-.52.18.1.34.16.46.18-.14-.12-.26-.26-.36-.44l.38.24-.32-.44c.1,0,.18.08.26.16,0-.22,0-.46.06-.67,1.01,2.2,1.59,4.23,1.31,5.94h.97Zm-.79-7.21h.02c.2.1.38.1.56,0h.02s-.1.1-.16.18c.14.02.28-.04.42-.14l-.14.2c.1.02.22-.02.36-.12l-.18.2c.12.02.24-.02.36-.12l-.14.22c.18.02.36.06.56.14-.66.12-1.05.36-1.37.67-.3-.32-.69-.56-1.35-.67.2-.08.38-.12.56-.14l-.14-.22c.12.1.24.14.36.12l-.18-.2c.14.1.24.14.36.12l-.16-.2c.16.1.3.16.42.14-.04-.08-.1-.14-.16-.18m-.06,1.71l-.06.12-.06-.38.12.26Zm-.08.12l-.14.28c.14-.06.34-.06.48-.28l.08.1-.02.06.04-.02.06.02-.02-.06.06-.1c.16.22.36.22.5.28l-.16-.28.24-.4-.02.28c.34-.1.68-.26,1.01-.44-.87,1.07-1.39,2.2-1.67,3.43-.26-1.23-.77-2.36-1.65-3.43.34.18.66.34,1.01.44l-.04-.28.24.4Zm.81-.12l.12-.26-.06.38-.06-.12Z"/>
    </g>
    <text class="cls-3" transform="translate(565.85 179.16)"><tspan x="0" y="0">Santa Clara</tspan></text>
    <text class="cls-3" transform="translate(441.24 183.93)"><tspan x="0" y="0">San Crisanto</tspan></text>
    <polygon class="cls-20" points="461.61 269.01 461.45 269.01 461.45 268.97 461.83 268.97 461.83 269.01 461.66 269.01 461.66 269.44 461.61 269.44 461.61 269.01"/>
    <path class="cls-20" d="m462.17,269.28h-.3s.02.07.04.09c.03.02.06.03.1.03.02,0,.04,0,.06-.01.02,0,.03-.02.05-.04l.03.03s-.04.03-.06.04c-.02.01-.05.02-.08.02-.04,0-.07,0-.1-.02-.03-.02-.05-.04-.07-.06-.02-.03-.02-.06-.02-.09s0-.07.02-.09c.02-.03.04-.05.06-.06.03-.02.06-.02.09-.02s.06,0,.09.02c.03.02.05.04.06.06s.02.06.02.09h0Zm-.26-.12s-.04.05-.04.09h.25s-.02-.06-.04-.09c-.02-.02-.05-.03-.09-.03s-.06.01-.09.03"/>
    <rect class="cls-20" x="462.27" y="268.94" width=".05" height=".5"/>
    <path class="cls-20" d="m462.51,269.42s-.05-.04-.07-.06c-.02-.03-.02-.06-.02-.09s0-.07.02-.09c.02-.03.04-.05.07-.06.03-.01.06-.02.09-.02.03,0,.06,0,.08.02.02.01.04.03.06.05l-.04.02s-.03-.03-.04-.04c-.02,0-.04-.01-.06-.01-.03,0-.05,0-.07.02-.02.01-.04.03-.05.05-.01.02-.02.05-.02.07,0,.03,0,.05.02.07.01.02.03.04.05.05.02.01.04.02.07.02.02,0,.04,0,.06-.01.02,0,.03-.02.04-.04l.04.02s-.03.04-.06.05c-.02.01-.05.02-.08.02-.04,0-.07,0-.09-.02"/>
    <path class="cls-20" d="m463.12,269.12s.04.06.04.11v.21h-.05v-.2s0-.07-.03-.08c-.02-.02-.04-.03-.08-.03-.04,0-.07.01-.09.03-.02.02-.03.05-.03.09v.19h-.05v-.5h.05v.21s.03-.04.05-.05c.02-.01.05-.02.08-.02.04,0,.08.01.11.04"/>
    <path class="cls-20" d="m463.52,269.12s.04.06.04.1v.22h-.05v-.06s-.03.03-.05.04c-.02.01-.05.02-.08.02-.04,0-.07,0-.09-.03-.02-.02-.04-.04-.04-.08s.01-.05.03-.07c.02-.02.06-.03.1-.03h.11v-.02s0-.05-.03-.07c-.02-.02-.04-.02-.08-.02-.02,0-.04,0-.07.01-.02,0-.04.02-.05.03l-.02-.04s.04-.03.07-.04.05-.01.08-.01c.05,0,.08.01.11.04m-.05.27s.03-.03.04-.05v-.06h-.11c-.06,0-.09.02-.09.06,0,.02,0,.04.02.05.02.01.04.02.07.02.03,0,.05,0,.07-.02"/>
    <path class="cls-20" d="m463.74,269.42s-.05-.04-.07-.06c-.02-.03-.02-.06-.02-.09s0-.07.02-.09c.02-.03.04-.05.07-.06.03-.01.06-.02.09-.02.03,0,.06,0,.08.02.02.01.04.03.06.05l-.04.02s-.03-.03-.04-.04c-.02,0-.04-.01-.06-.01-.03,0-.05,0-.07.02-.02.01-.04.03-.05.05-.01.02-.02.05-.02.07,0,.03,0,.05.02.07.01.02.03.04.05.05.02.01.04.02.07.02.02,0,.04,0,.06-.01.02,0,.03-.02.04-.04l.04.02s-.03.04-.06.05c-.02.01-.05.02-.08.02-.04,0-.07,0-.09-.02"/>
    <path class="cls-20" d="m461.84,269.75s.05.07.05.12-.02.09-.05.12c-.03.03-.08.04-.14.04h-.13v.15h-.05v-.47h.18c.06,0,.11.01.14.04m-.04.21s.04-.05.04-.09-.01-.07-.04-.09c-.02-.02-.06-.03-.11-.03h-.13v.24h.13s.08-.01.11-.03"/>
    <path class="cls-20" d="m462.32,269.82v.36h-.05v-.07s-.03.04-.05.05c-.02.01-.05.02-.08.02-.05,0-.08-.01-.11-.04s-.04-.06-.04-.11v-.21h.05v.2s0,.07.03.08c.02.02.04.03.08.03.04,0,.07-.01.09-.03.02-.02.03-.05.03-.1v-.19h.05Z"/>
    <path class="cls-20" d="m462.76,270.02h-.3s.02.07.04.09c.03.02.06.03.1.03.02,0,.04,0,.06-.01.02,0,.03-.02.05-.04l.03.03s-.04.03-.06.04c-.02.01-.05.02-.08.02-.04,0-.07,0-.1-.02-.03-.02-.05-.04-.07-.06-.02-.03-.02-.06-.02-.09s0-.07.02-.09c.02-.03.04-.05.06-.06.03-.02.06-.02.09-.02s.06,0,.09.02c.03.02.05.04.06.06s.02.06.02.09h0Zm-.26-.12s-.04.05-.04.09h.25s-.02-.06-.04-.09c-.02-.02-.05-.03-.09-.03s-.06.01-.09.03"/>
    <path class="cls-20" d="m463.14,269.84s.05.04.06.06c.02.03.02.06.02.09s0,.07-.02.09c-.02.03-.04.05-.06.06-.03.02-.06.02-.09.02-.03,0-.06,0-.08-.02s-.04-.03-.06-.05v.07h-.05v-.5h.05v.21s.03-.04.06-.05c.02-.01.05-.02.08-.02.03,0,.06,0,.09.02m-.03.28s.04-.03.05-.05c.01-.02.02-.05.02-.07s0-.05-.02-.07c-.01-.02-.03-.04-.05-.05-.02-.01-.04-.02-.07-.02s-.05,0-.07.02c-.02.01-.04.03-.05.05-.01.02-.02.04-.02.07s0,.05.02.07c.01.02.03.04.05.05.02.01.04.02.07.02s.05,0,.07-.02"/>
    <rect class="cls-20" x="463.32" y="269.68" width=".05" height=".5"/>
    <path class="cls-20" d="m463.55,270.16s-.05-.04-.07-.06c-.02-.03-.02-.06-.02-.09s0-.07.02-.09c.02-.03.04-.05.07-.06.03-.02.06-.02.09-.02s.07,0,.09.02c.03.02.05.04.06.06.02.03.02.06.02.09s0,.07-.02.09c-.02.03-.04.05-.06.06-.03.02-.06.02-.09.02s-.07,0-.09-.02m.16-.04s.04-.03.05-.05c.01-.02.02-.05.02-.07s0-.05-.02-.07c-.01-.02-.03-.04-.05-.05-.02-.01-.04-.02-.07-.02s-.05,0-.07.02c-.02.01-.04.03-.05.05-.01.02-.02.04-.02.07s0,.05.02.07c.01.02.03.04.05.05.02.01.04.02.07.02s.05,0,.07-.02"/>
    <path class="cls-20" d="m460.52,268.74c-.35,0-.63.28-.63.63,0,.49.57.99.59,1.01.02.02.05.02.08,0,.02-.02.59-.53.59-1.01,0-.35-.28-.63-.63-.63m0,.91c-.16,0-.29-.13-.29-.29s.13-.29.29-.29.29.13.29.29c0,.16-.13.29-.28.29h0Z"/>
    <path class="cls-20" d="m460.52,269.87c-.28,0-.5-.23-.5-.5s.23-.5.5-.5.5.23.5.5c0,.28-.22.51-.5.51h0Z"/>
    <path class="cls-20" d="m460.8,269.32l-.26-.28s-.01,0-.02,0c0,0-.01,0-.02,0l-.26.28s0,.02,0,.03c0,0,.01.01.02.01h.07v.21s.02.04.04.04h.05s.03-.01.03-.03v-.1s.01-.03.03-.03h.1s.03.01.03.03v.1s.01.03.03.03h.05s.04-.02.04-.04v-.21h.07s.02-.01.02-.02c0,0,0-.01,0-.02"/>
    <text class="cls-3" transform="translate(347.3 396.07) rotate(1.1)"><tspan x="0" y="0">Telchac</tspan></text>
    <text class="cls-3" transform="translate(343.03 431.36) rotate(1.1)"><tspan x="0" y="0">Motúl</tspan></text>
    <g>
      <path class="cls-10" d="m144.51,162.53c-4.27,0-7.74,3.47-7.74,7.74,0,5.98,6.98,12.23,7.28,12.49.27.23.66.23.93,0,.3-.26,7.28-6.51,7.28-12.49,0-4.27-3.47-7.74-7.74-7.74m0,11.26c-1.94,0-3.52-1.58-3.52-3.52s1.58-3.52,3.52-3.52,3.52,1.57,3.52,3.52c.02,1.94-1.55,3.53-3.49,3.55h-.03v-.03Z"/>
      <path class="cls-20" d="m144.51,176.47c-3.43,0-6.21-2.78-6.21-6.21s2.78-6.21,6.21-6.21,6.21,2.78,6.21,6.21c.03,3.43-2.73,6.24-6.16,6.26-.02,0-.03,0-.05,0v-.05Z"/>
      <path class="cls-2" d="m147.93,169.73l-3.16-3.49c-.06-.06-.13-.09-.22-.09s-.16.03-.22.09l-3.26,3.51c-.08.09-.1.21-.05.32.05.11.15.18.27.18h.84v2.53c0,.28.22.51.5.51h.6c.19,0,.34-.15.34-.34v-1.27c0-.19.15-.34.34-.34h1.18c.19,0,.34.15.34.34v1.27c0,.19.15.34.34.34h.58c.28,0,.51-.23.51-.51v-2.53h.87c.16,0,.3-.13.3-.3,0-.09-.04-.17-.1-.22"/>
    </g>
    <text class="cls-3" transform="translate(127.17 191.34) rotate(1.1)"><tspan x="0" y="0">Chicxulub</tspan></text>
    <g>
      <path class="cls-10" d="m99.51,163.53c-4.27,0-7.74,3.47-7.74,7.74,0,5.98,6.98,12.23,7.28,12.49.27.23.66.23.93,0,.3-.26,7.28-6.51,7.28-12.49,0-4.27-3.47-7.74-7.74-7.74m0,11.26c-1.94,0-3.52-1.58-3.52-3.52s1.58-3.52,3.52-3.52,3.52,1.57,3.52,3.52c.02,1.94-1.55,3.53-3.49,3.55h-.03v-.03Z"/>
      <path class="cls-20" d="m99.51,177.47c-3.43,0-6.21-2.78-6.21-6.21s2.78-6.21,6.21-6.21,6.21,2.78,6.21,6.21c.03,3.43-2.73,6.24-6.16,6.26-.02,0-.03,0-.05,0v-.05Z"/>
      <path class="cls-2" d="m102.93,170.73l-3.16-3.49c-.06-.06-.13-.09-.22-.09s-.16.03-.22.09l-3.26,3.51c-.08.09-.1.21-.05.32.05.11.15.18.27.18h.84v2.53c0,.28.22.51.5.51h.6c.19,0,.34-.15.34-.34v-1.27c0-.19.15-.34.34-.34h1.18c.19,0,.34.15.34.34v1.27c0,.19.15.34.34.34h.58c.28,0,.51-.23.51-.51v-2.53h.87c.16,0,.3-.13.3-.3,0-.09-.04-.17-.1-.22"/>
    </g>
    <text class="cls-3" transform="translate(84.17 193.34) rotate(1.1)"><tspan x="0" y="0">Progreso</tspan></text>
    <text class="cls-3" transform="translate(337.73 185.77) rotate(1.1)"><tspan x="0" y="0">Telchac Pto.</tspan></text>
    <g>
      <path class="cls-10" d="m360.39,364.75c-4.27,0-7.74,3.47-7.74,7.74,0,5.98,6.98,12.23,7.28,12.49.27.23.66.23.93,0,.3-.26,7.28-6.51,7.28-12.49,0-4.27-3.47-7.74-7.74-7.74m0,11.26c-1.94,0-3.52-1.58-3.52-3.52s1.58-3.52,3.52-3.52,3.52,1.57,3.52,3.52c.02,1.94-1.55,3.53-3.49,3.55h-.03v-.03Z"/>
      <path class="cls-20" d="m360.39,378.69c-3.43,0-6.21-2.78-6.21-6.21s2.78-6.21,6.21-6.21,6.21,2.78,6.21,6.21c.03,3.43-2.73,6.24-6.16,6.26-.02,0-.03,0-.05,0v-.05Z"/>
      <path class="cls-2" d="m363.8,371.95l-3.16-3.49c-.06-.06-.13-.09-.22-.09s-.16.03-.22.09l-3.26,3.51c-.08.09-.1.21-.05.32.05.11.15.18.27.18h.84v2.53c0,.28.22.51.5.51h.6c.19,0,.34-.15.34-.34v-1.27c0-.19.15-.34.34-.34h1.18c.19,0,.34.15.34.34v1.27c0,.19.15.34.34.34h.58c.28,0,.51-.23.51-.51v-2.53h.87c.16,0,.3-.13.3-.3,0-.09-.04-.17-.1-.22"/>
    </g>
    <text class="cls-21" transform="translate(405.98 305.55)"><tspan class="cls-45" x="0" y="0">H</tspan><tspan class="cls-46" x="1.88" y="0">A</tspan><tspan class="cls-45" x="3.62" y="0">CIEN</tspan><tspan class="cls-29" x="9.51" y="0">D</tspan><tspan x="11.39" y="0">A</tspan></text>
    <g>
      <polygon class="cls-11" points="441.85 300.37 430.95 268.28 420.35 302.64 409.6 299.46 412.93 288.26 391.46 283.19 390.56 285.73 383.83 284.09 382.2 290.53 386.14 291.44 385.23 296.89 404.15 299.91 403.24 305.82 384.02 303.85 382.5 314.3 392.5 315.51 392.5 313.24 419.74 316.72 441.85 300.37"/>
      <polygon class="cls-14" points="441.85 300.37 430.95 268.28 420.35 302.64 409.6 299.46 412.93 288.26 391.46 283.19 390.56 285.73 383.83 284.09 382.2 290.53 386.14 291.44 385.23 296.89 404.15 299.91 403.24 305.82 384.02 303.85 382.5 314.3 392.5 315.51 392.5 313.24 419.74 316.72 441.85 300.37"/>
      <polygon class="cls-52" points="430.95 268.28 441.85 300.37 481.7 270 468.38 239.72 430.95 268.28"/>
      <polygon class="cls-14" points="430.95 268.28 441.85 300.37 481.7 270 468.38 239.72 430.95 268.28"/>
      <polygon class="cls-11" points="414.89 280.7 412.7 288.73 419.78 290.34 421.92 282.05 414.89 280.7"/>
      <polygon class="cls-14" points="414.89 280.7 412.7 288.73 419.78 290.34 421.92 282.05 414.89 280.7"/>
      <polygon class="cls-11" points="412.71 288.43 391.46 283.19 390.56 285.73 383.83 284.09 387.27 272.71 393.11 265.08 417.35 272.12 412.71 288.43"/>
      <polygon class="cls-14" points="412.71 288.43 391.46 283.19 390.56 285.73 383.83 284.09 387.27 272.71 393.11 265.08 417.35 272.12 412.71 288.43"/>
      <polygon class="cls-49" points="308.84 329.24 304.24 364.41 340.66 368.32 344.89 318.82 327.57 316.17 325.91 331.23 308.84 329.24"/>
      <polygon class="cls-14" points="308.84 329.24 304.24 364.41 340.66 368.32 344.89 318.82 327.57 316.17 325.91 331.23 308.84 329.24"/>
      <g>
        <path class="cls-20" d="m443.61,267c.12,0,.23-.01.34-.04.11-.03.21-.07.31-.12.1-.05.19-.11.27-.18.08-.07.16-.15.22-.24l.56.48c-.1.13-.21.24-.33.34s-.26.19-.4.26c-.14.07-.3.13-.46.17s-.33.06-.5.06c-.2,0-.39-.03-.58-.08-.18-.05-.36-.12-.52-.22-.16-.09-.31-.21-.44-.34s-.24-.28-.34-.44c-.09-.16-.17-.33-.22-.52-.05-.18-.08-.38-.08-.58s.03-.39.08-.58c.05-.18.12-.36.22-.52.09-.16.21-.31.34-.44s.28-.24.44-.34c.16-.09.33-.17.52-.22.18-.05.38-.08.58-.08.17,0,.34.02.5.06s.31.1.46.17.28.16.4.26c.12.1.24.22.33.34l-.56.49c-.06-.09-.14-.17-.22-.24-.08-.07-.17-.13-.27-.18s-.2-.09-.31-.12c-.11-.03-.22-.04-.34-.04-.2,0-.38.04-.55.11-.17.07-.33.18-.45.31-.13.13-.23.28-.31.45-.07.17-.11.36-.11.56s.04.38.11.55c.07.17.18.33.31.45.13.13.28.23.45.31.17.07.36.11.55.11"/>
        <rect class="cls-20" x="445.78" y="263.4" width=".81" height="4.34"/>
        <path class="cls-20" d="m449.64,263.4h.81v2.75c0,.22-.04.43-.13.62-.08.19-.2.36-.34.5-.14.14-.31.26-.5.34-.19.08-.4.13-.62.13s-.43-.04-.62-.13c-.19-.08-.36-.2-.5-.34s-.26-.31-.34-.5c-.08-.19-.13-.4-.13-.62v-2.75h.81v2.77c0,.11.02.21.06.31.04.09.1.18.17.25s.15.13.25.17.19.06.3.06.21-.02.31-.06c.09-.04.18-.1.25-.17s.13-.15.17-.25c.04-.09.06-.2.06-.31v-2.77Z"/>
        <path class="cls-20" d="m454.42,264.41c.09.16.16.34.2.53.04.19.07.4.07.63,0,.23-.03.44-.07.63-.04.19-.11.37-.2.53-.21.36-.46.62-.77.77-.3.16-.77.24-1.39.24h-1.13v-4.34h1.13c.62,0,1.09.08,1.39.24.3.15.56.41.77.77m-2.04,2.52c.97,0,1.47-.45,1.49-1.36-.02-.91-.51-1.36-1.49-1.36h-.43v2.72h.43Z"/>
        <polygon class="cls-20" points="457.19 263.4 457.21 263.46 456.79 264.55 456.2 266.05 457.37 266.05 457.09 265.34 457.51 264.25 458.87 267.74 457.99 267.74 457.67 266.85 455.9 266.85 455.53 267.74 454.69 267.74 456.36 263.4 457.19 263.4"/>
        <path class="cls-20" d="m462.66,264.41c.09.16.16.34.2.53.04.19.07.4.07.63,0,.23-.03.44-.07.63-.04.19-.11.37-.2.53-.21.36-.46.62-.77.77-.3.16-.77.24-1.39.24h-1.13v-4.34h1.13c.62,0,1.09.08,1.39.24.3.15.56.41.77.77m-2.04,2.52c.97,0,1.47-.45,1.49-1.36-.02-.91-.51-1.36-1.49-1.36h-.43v2.72h.43Z"/>
        <path class="cls-20" d="m444.73,270.01c.09.16.16.34.2.53.04.19.07.4.07.63,0,.23-.03.44-.07.63-.04.19-.11.37-.2.53-.21.36-.46.62-.77.77-.3.16-.77.24-1.39.24h-1.13v-4.34h1.13c.62,0,1.09.08,1.39.24.3.15.56.41.77.77m-2.04,2.52c.97,0,1.47-.45,1.49-1.36-.02-.91-.51-1.36-1.49-1.36h-.43v2.72h.43Z"/>
        <polygon class="cls-20" points="448.14 269 448.14 269.81 446.34 269.81 446.34 270.77 448.14 270.77 448.14 271.56 446.34 271.56 446.34 272.53 448.14 272.53 448.14 273.34 445.54 273.34 445.54 269 448.14 269"/>
        <path class="cls-20" d="m449.6,273.34h-.83v-4.34h1.59c.39,0,.71.14.99.41.28.27.42.6.42.99v.06c0,.38-.14.71-.42.99-.28.27-.61.41-.99.41h-.76v1.5Zm.68-2.3c.17,0,.32-.06.43-.17.12-.11.17-.26.17-.43s-.06-.32-.17-.44c-.12-.12-.26-.18-.43-.18h-.68v1.23h.68Z"/>
        <path class="cls-20" d="m454.29,273.34c-.62,0-1.13-.21-1.55-.64-.41-.44-.62-.95-.62-1.52,0-.41.1-.78.29-1.1.19-.33.45-.59.79-.79.34-.19.7-.29,1.09-.29.58,0,1.08.21,1.5.64.43.43.64.95.64,1.55s-.21,1.13-.62,1.54c-.42.41-.92.62-1.52.62m0-.75c.18,0,.35-.03.51-.1.16-.07.3-.17.43-.3.27-.26.4-.6.4-1s-.13-.72-.4-1.01c-.26-.27-.58-.4-.97-.4s-.71.14-.96.4c-.26.26-.39.6-.39,1.01,0,.46.17.83.5,1.1.25.21.54.31.87.31"/>
        <path class="cls-20" d="m459.97,273.34h-.89l-.79-1.48h-.48v1.48h-.83v-4.34h1.59c.39,0,.72.14.99.41.27.27.41.6.41.99v.04c0,.59-.28,1.02-.85,1.3l.85,1.6Zm-1.48-2.29c.17,0,.31-.06.43-.19.12-.12.18-.27.18-.45s-.06-.31-.18-.43c-.12-.12-.26-.18-.43-.18h-.68v1.24h.68Z"/>
        <polygon class="cls-20" points="463.36 269 463.36 269.81 462.97 269.81 462.17 269.81 462.17 273.34 461.32 273.34 461.32 269.81 460.55 269.81 460.16 269.81 460.16 269 463.36 269"/>
        <rect class="cls-20" x="463.71" y="269" width=".81" height="4.34"/>
        <path class="cls-20" d="m465.96,269l1.52,4.28-.04.06h-.79l-1.54-4.34h.85Zm3.06,0l-1.24,3.43-.42-1.2.81-2.23h.85Z"/>
        <polygon class="cls-20" points="470.69 269 470.71 269.06 470.29 270.15 469.7 271.64 470.88 271.64 470.59 270.94 471.02 269.84 472.37 273.34 471.5 273.34 471.18 272.45 469.4 272.45 469.04 273.34 468.19 273.34 469.86 269 470.69 269"/>
        <path class="cls-20" d="m466.92,263.63c-.75.61-.64,2.76-1.06,2.82-.41.05-1.86-.51-2.46-1.08.85,1.23,2.51,2.2,3.1,1.86.59-.35,0-2.71.41-3.59"/>
        <path class="cls-20" d="m467.11,265.22c.66-1.08,1.59-1.9,1.9-2,.31-.1,1.82.75,2.38,1.61-.64-1.53-1.94-2.5-2.65-2.18-.71.32-1.44.72-1.54.81-.03.55-.2.78-.09,1.77"/>
        <path class="cls-20" d="m466.24,263.89c0,.47-.38.86-.86.86s-.86-.38-.86-.86.38-.86.86-.86.86.38.86.86"/>
        <path class="cls-20" d="m468.76,264.11c.06.53-1.2,1.7-1.66,2.46-.46.76,1.32,1.45,3.31,1.89-1.59-.7-3.17-1.08-1.84-2.22,1.32-1.15,1.7-1.89.19-2.13"/>
      </g>
    </g>
    <g>
      <polygon class="cls-10" points="349.77 305.04 348.88 314.16 380 320.9 382.24 303.69 381.32 303.49 382.83 290.65 378.07 287.98 349.77 305.04"/>
      <polygon class="cls-14" points="349.77 305.04 348.88 314.16 380 320.9 382.24 303.69 381.32 303.49 382.83 290.65 378.07 287.98 349.77 305.04"/>
    </g>
    <g>
      <g>
        <g>
          <path class="cls-41" d="m300.27,298.43c-.41.06-.44.1-.44.58v2.22c0,.47.04.51.44.58v.09h-1.56v-.09c.41-.06.44-.1.44-.58v-1.17h-1.51v1.17c0,.48.04.52.44.58v.09h-1.56v-.09c.4-.05.44-.09.44-.58v-2.22c0-.48-.05-.51-.44-.58v-.09h1.56v.09c-.39.07-.44.1-.44.58v.88h1.51v-.88c0-.48-.05-.51-.44-.58v-.09h1.56v.09Z"/>
          <path class="cls-41" d="m302.45,301.9v-.09c.38-.08.38-.14.28-.43-.07-.18-.16-.47-.27-.77h-1c-.09.25-.18.5-.25.7-.13.37-.08.42.39.5v.09h-1.19v-.09c.36-.06.43-.13.62-.62l1.13-2.89.15-.02c.34.97.7,1.92,1.06,2.88.19.53.25.58.58.65v.09h-1.52Zm-.48-2.7c-.17.45-.3.83-.45,1.23h.87l-.42-1.23Z"/>
          <path class="cls-41" d="m307.28,301.02c-.05.23-.19.67-.26.83-.14.03-.56.13-.93.13-1.42,0-2.02-.88-2.02-1.85,0-1.08.8-1.87,2.09-1.87.44,0,.84.1.97.11.01.28.05.61.08.84l-.1.02c-.11-.39-.25-.6-.55-.74-.15-.07-.31-.1-.53-.1-.82,0-1.17.73-1.17,1.64,0,1.06.49,1.81,1.3,1.81.51,0,.8-.31,1.05-.85l.09.03Z"/>
          <path class="cls-41" d="m307.68,301.9v-.09c.41-.07.44-.11.44-.62v-2.15c0-.51-.04-.55-.44-.61v-.09h1.56v.09c-.4.07-.44.1-.44.61v2.15c0,.53.03.55.44.62v.09h-1.56Z"/>
          <path class="cls-41" d="m312.36,301.04c-.03.19-.13.73-.16.86h-2.67v-.09c.47-.07.51-.09.51-.58v-2.22c0-.49-.03-.54-.42-.58v-.09h1.66c.54,0,.75,0,.79-.01,0,.21.03.56.05.79l-.09.02c-.04-.14-.11-.34-.24-.48-.1-.12-.22-.15-.54-.15h-.41c-.11,0-.14.02-.14.13v1.31h.53c.43,0,.45-.12.53-.46h.09v1.08h-.09c-.08-.32-.09-.46-.53-.46h-.53v1.17c0,.38.08.45.42.46h.32c.32,0,.4-.04.54-.19.1-.11.19-.3.28-.52l.08.02Z"/>
          <path class="cls-41" d="m316.33,298.43c-.36.08-.44.14-.45.51,0,.17-.02.31-.02.88v2.16h-.14l-2.46-2.96v1.4c0,.51,0,.67.02.85.02.37.05.47.56.54v.09h-1.26v-.09c.41-.06.45-.14.48-.53.01-.2.03-.41.03-.87v-1.44c0-.12-.03-.22-.09-.29-.14-.19-.24-.23-.48-.27v-.09h1.05l2.12,2.48v-1.01c0-.57-.02-.71-.02-.87-.02-.38-.14-.46-.62-.52v-.09h1.29v.09Z"/>
          <path class="cls-41" d="m318.2,298.34c.66,0,1.18.15,1.51.46.3.28.48.65.48,1.18,0,.66-.25,1.15-.65,1.46-.39.31-.86.45-1.42.45h-1.51v-.09c.39-.07.44-.1.44-.59v-2.2c0-.49-.05-.53-.44-.59v-.09h1.59Zm-.47,2.77c0,.45.15.64.62.64.71,0,1.08-.54,1.08-1.67,0-.56-.16-1.02-.43-1.29-.22-.22-.49-.31-.85-.31-.22,0-.32.04-.37.08s-.06.14-.06.32l.02,2.24Z"/>
          <path class="cls-41" d="m322.28,301.9v-.09c.38-.08.38-.14.28-.43-.07-.18-.16-.47-.27-.77h-1c-.09.25-.18.5-.25.7-.13.37-.08.42.39.5v.09h-1.19v-.09c.36-.06.43-.13.62-.62l1.13-2.89.15-.02c.34.97.7,1.92,1.06,2.88.19.53.25.58.58.65v.09h-1.52Zm-.48-2.7c-.17.45-.3.83-.45,1.23h.87l-.42-1.23Z"/>
        </g>
        <g>
          <path class="cls-49" d="m283.66,305.53c-.17-.54-.4-1.16-1.18-1.16-.49,0-.81.35-.81.82s.31.74,1.05,1.11c.9.45,1.47.89,1.47,1.72,0,1-.83,1.72-2.03,1.72-.54,0-1.02-.14-1.42-.26-.05-.19-.19-1.07-.25-1.47l.33-.08c.17.53.64,1.45,1.47,1.45.51,0,.83-.32.83-.86,0-.49-.3-.78-1.01-1.16-.88-.47-1.45-.89-1.45-1.77s.69-1.59,1.95-1.59c.58,0,1.02.13,1.2.15.03.31.09.75.16,1.28l-.32.08Z"/>
          <path class="cls-49" d="m287.54,309.62v-.31c.53-.08.53-.17.41-.53-.08-.25-.22-.63-.35-.97h-1.64c-.09.26-.21.58-.29.84-.18.53.03.6.69.66v.31h-2.08v-.31c.53-.07.67-.14.95-.85l1.75-4.36.4-.08c.54,1.47,1.11,2.97,1.66,4.38.31.78.39.84.94.91v.31h-2.44Zm-.74-4.03c-.24.61-.48,1.17-.69,1.79h1.34l-.65-1.79Z"/>
          <path class="cls-49" d="m296.16,304.45c-.51.07-.67.18-.7.56-.03.33-.05.62-.05,1.35v3.36h-.47l-3.51-4.22v1.91c0,.73.02,1.06.04,1.31.03.37.21.56.83.6v.31h-2.09v-.31c.48-.04.69-.17.74-.56.03-.3.05-.61.05-1.34v-2c0-.28-.02-.46-.18-.68-.15-.21-.35-.24-.71-.27v-.31h1.64l3.21,3.74v-1.52c0-.73,0-1.01-.03-1.32-.03-.36-.16-.54-.86-.58v-.31h2.08v.31Z"/>
          <path class="cls-49" d="m303.09,308.18c-.04.23-.28,1.2-.35,1.43h-4.37v-.3c.77-.08.82-.12.82-.83v-3.22c0-.72-.1-.77-.67-.82v-.31h2.74c.88,0,1.18,0,1.3-.02,0,.15.05.84.08,1.37l-.33.04c-.08-.29-.22-.63-.36-.78-.15-.17-.26-.22-.69-.22h-.55c-.32,0-.35.02-.35.3v1.76h.83c.47,0,.56-.13.68-.73h.33v1.88h-.33c-.13-.62-.2-.73-.69-.73h-.82v1.45c0,.58.02.76.54.77h.6c.47,0,.6-.06.78-.29.21-.24.38-.56.51-.84l.31.08Z"/>
          <path class="cls-49" d="m306.17,304.14c1.08,0,1.87.23,2.41.73.43.4.76.99.76,1.84,0,.97-.4,1.71-1.05,2.2-.62.47-1.42.71-2.38.71h-2.32v-.31c.64-.05.72-.13.72-.83v-3.2c0-.71-.09-.78-.72-.83v-.31h2.59Zm-.7,4.28c0,.6.15.8.77.8,1.14,0,1.79-.79,1.79-2.39,0-.8-.22-1.5-.61-1.86-.35-.35-.79-.47-1.36-.47-.31,0-.45.07-.51.12-.08.08-.09.22-.09.46v3.34Z"/>
          <path class="cls-49" d="m315.88,304.45c-.54.05-.68.21-.72.51-.03.25-.04.54-.04,1.13v1.1c0,.73-.12,1.46-.6,1.96-.39.4-.99.58-1.58.58-.56,0-1.11-.12-1.51-.44-.49-.37-.72-.89-.72-1.83v-2.13c0-.78-.08-.83-.72-.89v-.31h2.6v.31c-.63.06-.71.12-.71.89v2.24c0,.94.46,1.57,1.36,1.57,1,0,1.44-.74,1.44-2.01v-1.05c0-.58-.03-.89-.04-1.14-.03-.39-.27-.47-.86-.51v-.31h2.09v.31Z"/>
          <path class="cls-49" d="m318.81,309.62v-.31c.53-.08.53-.17.41-.53-.08-.25-.22-.63-.35-.97h-1.64c-.09.26-.21.58-.29.84-.18.53.03.6.69.66v.31h-2.08v-.31c.53-.07.67-.14.95-.85l1.75-4.36.4-.08c.54,1.47,1.11,2.97,1.66,4.38.31.78.39.84.94.91v.31h-2.44Zm-.74-4.03c-.24.61-.48,1.17-.69,1.79h1.34l-.65-1.79Z"/>
          <path class="cls-49" d="m326.86,309.67c-.05,0-.15,0-.25,0-1.07-.05-1.38-.28-1.63-.63-.34-.46-.58-.98-.87-1.48-.13-.23-.24-.28-.51-.28h-.17s0,1.22,0,1.22c0,.68.08.74.72.82v.31h-2.58v-.31c.64-.07.72-.13.72-.82v-3.23c0-.67-.08-.76-.72-.81v-.31h2.44c.75,0,1.18.08,1.53.32.34.23.56.6.56,1.12,0,.75-.5,1.15-1.05,1.37.13.25.46.8.71,1.19.29.46.48.69.64.88.19.22.29.29.53.37l-.06.29Zm-3.21-2.76c.36,0,.64-.06.83-.22.28-.24.4-.56.4-.99,0-.89-.51-1.21-.99-1.21-.23,0-.34.03-.39.08-.06.05-.08.15-.08.32v2.02h.23Z"/>
          <path class="cls-49" d="m329.8,304.14c1.08,0,1.87.23,2.41.73.43.4.76.99.76,1.84,0,.97-.4,1.71-1.05,2.2-.62.47-1.42.71-2.38.71h-2.32v-.31c.64-.05.72-.13.72-.83v-3.2c0-.71-.09-.78-.72-.83v-.31h2.59Zm-.7,4.28c0,.6.15.8.77.8,1.14,0,1.79-.79,1.79-2.39,0-.8-.22-1.5-.61-1.86-.35-.35-.79-.47-1.36-.47-.31,0-.45.07-.51.12-.08.08-.09.22-.09.46v3.34Z"/>
          <path class="cls-49" d="m336.79,304.02c1.56,0,2.83,1.14,2.83,2.8,0,1.8-1.28,2.93-2.87,2.93-1.69,0-2.91-1.23-2.91-2.86,0-1.44,1.03-2.87,2.95-2.87Zm-.13.37c-.86,0-1.49.84-1.49,2.34s.56,2.65,1.7,2.65c.8,0,1.42-.78,1.42-2.32,0-1.67-.66-2.66-1.63-2.66Z"/>
        </g>
      </g>
      <g>
        <g>
          <path class="cls-41" d="m326.45,301.23l.3-.36s-.06-.57-1.25-.74c0,0,.97.27.95,1.1Z"/>
          <path class="cls-41" d="m326.45,298.86l.3.36s-.06.57-1.25.74c0,0,.97-.27.95-1.1Z"/>
        </g>
        <polygon class="cls-41" points="327.76 300.04 327.26 300.28 326.07 300.04 327.26 299.81 327.76 300.04"/>
      </g>
      <g>
        <g>
          <path class="cls-41" d="m293.15,301.23l-.3-.36s.06-.57,1.25-.74c0,0-.97.27-.95,1.1Z"/>
          <path class="cls-41" d="m293.15,298.86l-.3.36s.06.57,1.25.74c0,0-.97-.27-.95-1.1Z"/>
        </g>
        <polygon class="cls-41" points="291.84 300.04 292.34 300.28 293.53 300.04 292.34 299.81 291.84 300.04"/>
      </g>
    </g>
    <rect class="cls-12" x="424.9" y="306.25" width=".36" height="18.16"/>
    <path class="cls-2" d="m425.13,327.08c-1.36,0-2.46-1.1-2.46-2.46s1.1-2.46,2.46-2.46,2.46,1.1,2.46,2.46-1.1,2.46-2.46,2.46"/>
    <rect class="cls-12" x="368.87" y="307.09" width=".36" height="18.16"/>
    <path class="cls-2" d="m369.1,327.93c-1.36,0-2.46-1.1-2.46-2.46s1.1-2.46,2.46-2.46,2.46,1.1,2.46,2.46-1.1,2.46-2.46,2.46"/>
    <g>
      <rect class="cls-12" x="312.04" y="327.67" width="18.16" height=".36" transform="translate(-12.83 642.61) rotate(-88.9)"/>
      <path class="cls-2" d="m321.3,316.1c1.36.03,2.43,1.15,2.41,2.5-.03,1.36-1.15,2.44-2.5,2.41s-2.43-1.15-2.41-2.5,1.15-2.43,2.5-2.41"/>
    </g>
    <g>
      <polygon class="cls-12" points="102.1 383.77 102.46 383.78 102.11 397.93 101.75 398.93 102.1 383.77"/>
      <path class="cls-2" d="m102.28,381.1c1.36.03,2.43,1.15,2.41,2.5s-1.15,2.44-2.5,2.41-2.43-1.15-2.41-2.5c.03-1.36,1.15-2.43,2.5-2.41"/>
    </g>
    <path class="cls-12" d="m412.46,334.96c-.04-.06-.09-.12-.15-.19s-.14-.1-.24-.11c-.13,0-.27-.01-.41-.02-.12-.01-.25-.02-.4-.02-.15,0-.29,0-.42,0v4.48c0,.08.02.15.05.21.03.05.08.1.14.13h-1.11c.13-.07.2-.18.2-.34v-4.48c-.15,0-.29,0-.43,0-.14,0-.28.01-.4.02-.14.01-.28.02-.41.02-.09,0-.17.04-.24.11-.07.07-.12.13-.15.19v-.66h3.96v.66Z"/>
    <path class="cls-12" d="m415.76,339.44h-3.04c.07-.03.13-.08.17-.13.04-.05.06-.12.06-.21v-4.45c0-.08-.02-.16-.06-.21-.04-.05-.09-.1-.15-.13h2.85l.02.59c-.08-.09-.16-.16-.25-.2-.09-.05-.22-.07-.38-.07h-.26c-.14,0-.28,0-.44,0-.18,0-.38,0-.6,0v1.82h1.23c.06,0,.11-.02.16-.07.05-.05.08-.09.11-.13v.73s-.06-.09-.11-.14c-.05-.05-.1-.07-.16-.07h-1.23v2.33c.08.01.21.02.37.03.16.01.33.02.51.02.2,0,.37,0,.52,0,.14,0,.27-.02.37-.05.11-.03.2-.08.27-.14.08-.06.15-.15.22-.28l-.16.79Z"/>
    <path class="cls-12" d="m418.66,335.59c0-.09-.02-.19-.05-.31-.03-.11-.08-.22-.16-.32-.07-.1-.18-.19-.31-.25-.13-.07-.3-.1-.5-.1-.08,0-.16,0-.23,0-.07,0-.13,0-.18.01-.06,0-.11,0-.16,0v2.08s.09,0,.14,0c.04,0,.09,0,.14,0h.15c.14,0,.28-.02.42-.06.14-.04.26-.11.36-.2.11-.09.19-.21.26-.36.07-.14.1-.31.1-.51m1.15,3.86c-.15,0-.27-.03-.38-.11-.11-.08-.19-.16-.24-.24-.19-.29-.36-.55-.5-.78-.15-.23-.28-.46-.41-.67-.05-.08-.1-.15-.15-.23-.05-.07-.1-.14-.15-.2s-.12-.11-.19-.14c-.07-.04-.16-.06-.25-.06h-.44v2.08c0,.09.02.15.06.21.04.05.09.1.14.13h-1.12c.06-.03.1-.08.14-.13.04-.05.06-.12.06-.21v-4.45c0-.08-.02-.16-.06-.21-.04-.06-.09-.1-.14-.13h1.42c.38,0,.69.04.92.13.24.08.42.19.56.32.13.13.23.27.28.41.05.15.08.28.08.4,0,.21-.04.39-.12.54-.08.15-.18.28-.3.39-.12.11-.25.19-.39.24-.14.06-.26.09-.38.1.1.02.19.05.27.1.08.05.15.1.21.15.06.06.11.11.15.17.04.06.08.11.11.15.16.26.3.5.45.73.06.1.12.2.19.3.06.1.12.19.18.28.06.09.12.17.17.25.06.07.1.13.14.18.04.05.09.09.14.12.06.04.11.07.16.09.06.03.12.06.18.08l-.77.02Z"/>
    <path class="cls-12" d="m422.91,335.59c0-.09-.02-.19-.05-.31-.03-.11-.08-.22-.16-.32-.07-.1-.18-.19-.31-.25-.13-.07-.3-.1-.5-.1-.08,0-.16,0-.23,0-.07,0-.13,0-.18.01-.06,0-.11,0-.16,0v2.08s.09,0,.14,0c.04,0,.09,0,.14,0h.15c.14,0,.28-.02.42-.06.14-.04.26-.11.36-.2.1-.09.19-.21.25-.36.07-.14.1-.31.1-.51m1.15,3.86c-.15,0-.27-.03-.38-.11s-.19-.16-.24-.24c-.19-.29-.36-.55-.5-.78-.15-.23-.28-.46-.41-.67-.05-.08-.1-.15-.15-.23-.05-.07-.1-.14-.15-.2s-.12-.11-.19-.14c-.07-.04-.16-.06-.25-.06h-.44v2.08c0,.09.02.15.06.21.04.05.09.1.14.13h-1.12c.06-.03.1-.08.14-.13.04-.05.06-.12.06-.21v-4.45c0-.08-.02-.16-.06-.21-.04-.06-.09-.1-.14-.13h1.42c.38,0,.69.04.92.13.24.08.43.19.56.32.13.13.23.27.28.41.05.15.08.28.08.4,0,.21-.04.39-.12.54-.08.15-.18.28-.3.39-.12.11-.25.19-.39.24-.14.06-.27.09-.38.1.1.02.19.05.27.1.08.05.15.1.21.15.06.06.11.11.15.17.04.06.08.11.11.15.16.26.3.5.45.73.06.1.12.2.19.3.06.1.12.19.18.28.06.09.12.17.17.25.06.07.1.13.14.18.04.05.09.09.14.12.06.04.11.07.16.09.06.03.12.06.18.08l-.77.02Z"/>
    <path class="cls-12" d="m427.25,337.6c-.1-.24-.2-.49-.3-.73-.1-.25-.19-.47-.28-.68-.1-.24-.19-.48-.28-.7-.11.26-.21.51-.3.76-.09.22-.18.45-.27.69-.1.24-.19.47-.27.67h1.7Zm.43,1.84c.1-.04.16-.1.19-.15.03-.06.03-.13,0-.21-.02-.05-.08-.18-.18-.39-.09-.22-.2-.47-.31-.76h-1.96c-.06.14-.12.28-.17.41-.06.13-.1.25-.15.35-.04.1-.08.19-.11.26-.03.07-.04.12-.05.14-.03.08-.04.16-.02.22.02.06.08.11.18.15h-.92c.11-.07.18-.13.23-.19.04-.05.09-.11.12-.18.02-.04.06-.13.12-.29.07-.16.15-.36.25-.59.1-.24.21-.5.33-.79.12-.29.24-.58.37-.88.29-.69.62-1.47.99-2.33.36.86.69,1.64.99,2.33.13.3.25.59.37.88.12.29.23.55.33.79.1.24.19.43.25.59.07.16.11.25.12.29.03.08.07.15.11.2.05.05.13.11.26.17h-1.37Z"/>
    <path class="cls-12" d="m432.33,334.31c-.05.03-.09.06-.11.08-.03.02-.05.05-.06.08-.02.02-.03.05-.04.08-.01.03-.03.07-.05.12-.02.04-.05.14-.12.3-.06.16-.14.36-.23.6-.09.24-.19.51-.31.8-.11.29-.23.59-.34.89-.27.71-.56,1.5-.89,2.37l-.95-2.38c-.12-.3-.24-.6-.36-.9-.12-.29-.23-.56-.32-.8-.1-.24-.18-.44-.25-.6-.07-.16-.11-.26-.12-.29-.04-.08-.08-.14-.13-.2-.05-.06-.13-.11-.26-.16h1.37c-.1.04-.16.1-.17.18,0,.08,0,.17.02.26,0,0,.02.06.06.16.04.1.09.23.15.4.06.16.14.35.21.56.08.21.16.43.25.64.2.51.42,1.09.67,1.74l.66-1.78c.08-.22.16-.44.24-.65.08-.21.15-.41.21-.58.06-.17.11-.31.15-.41.04-.1.06-.16.06-.16.03-.09.04-.16.03-.22s-.07-.1-.16-.14h.77Z"/>
    <path class="cls-12" d="m432.4,339.44c.06-.03.11-.08.15-.13.04-.05.06-.12.06-.21v-4.45c0-.08-.02-.16-.06-.21-.04-.05-.09-.1-.15-.13h1.12c-.06.03-.1.07-.14.13-.04.06-.06.13-.06.21v4.45c0,.09.02.15.06.21.04.05.08.1.14.13h-1.12Z"/>
    <path class="cls-12" d="m438,334.31c-.05.03-.09.06-.11.08-.03.02-.05.05-.06.08-.02.02-.03.05-.04.08-.01.03-.03.07-.05.12-.02.04-.05.14-.12.3-.06.16-.14.36-.23.6-.09.24-.19.51-.31.8-.11.29-.23.59-.34.89-.27.71-.56,1.5-.89,2.37l-.95-2.38c-.12-.3-.24-.6-.36-.9-.12-.29-.23-.56-.32-.8-.1-.24-.18-.44-.25-.6-.07-.16-.11-.26-.12-.29-.04-.08-.08-.14-.13-.2-.05-.06-.13-.11-.26-.16h1.37c-.1.04-.16.1-.17.18-.01.08,0,.17.02.26,0,0,.02.06.06.16.04.1.09.23.15.4.06.16.14.35.22.56.08.21.16.43.25.64.2.51.42,1.09.67,1.74l.66-1.78c.08-.22.16-.44.24-.65.08-.21.15-.41.21-.58.06-.17.11-.31.15-.41.04-.1.06-.16.06-.16.03-.09.04-.16.03-.22-.01-.06-.07-.1-.16-.14h.77Z"/>
    <path class="cls-12" d="m439.92,337.6c-.1-.24-.2-.49-.3-.73-.1-.25-.19-.47-.28-.68-.1-.24-.19-.48-.28-.7-.11.26-.21.51-.3.76-.09.22-.18.45-.27.69-.1.24-.19.47-.27.67h1.7Zm.43,1.84c.1-.04.16-.1.19-.15.03-.06.03-.13,0-.21-.03-.05-.08-.18-.18-.39-.09-.22-.2-.47-.31-.76h-1.96c-.06.14-.12.28-.17.41-.06.13-.1.25-.15.35-.04.1-.08.19-.11.26-.03.07-.04.12-.05.14-.03.08-.04.16-.02.22.02.06.08.11.18.15h-.92c.11-.07.18-.13.23-.19.05-.05.09-.11.12-.18.02-.04.06-.13.12-.29.07-.16.15-.36.25-.59.1-.24.21-.5.33-.79.12-.29.24-.58.37-.88.29-.69.62-1.47.99-2.33.36.86.69,1.64.99,2.33.13.3.25.59.37.88.12.29.23.55.33.79.1.24.19.43.25.59.07.16.11.25.12.29.03.08.07.15.11.2.05.05.13.11.26.17h-1.37Z"/>
    <polygon class="cls-12" points="415.73 330.65 415.73 333.17 415.47 333.17 415.47 332 413.9 332 413.9 333.17 413.63 333.17 413.63 330.65 413.9 330.65 413.9 331.77 415.47 331.77 415.47 330.65 415.73 330.65"/>
    <path class="cls-12" d="m418.46,332.49h-1.4l-.3.67h-.28l1.15-2.52h.26l1.15,2.52h-.28l-.3-.67Zm-.1-.22l-.6-1.35-.6,1.35h1.21Z"/>
    <path class="cls-12" d="m420.16,333.02c-.2-.11-.36-.26-.47-.46-.11-.2-.17-.41-.17-.66s.06-.46.17-.66c.11-.2.27-.35.47-.46s.43-.17.68-.17c.19,0,.36.03.52.09.16.06.29.15.4.27l-.17.17c-.2-.2-.44-.3-.74-.3-.2,0-.38.04-.54.14-.16.09-.29.22-.38.37-.09.16-.14.34-.14.53s.05.37.14.53c.09.16.22.28.38.37.16.09.34.14.54.14.3,0,.55-.1.74-.3l.17.17c-.11.12-.24.21-.4.28-.16.06-.33.1-.52.1-.25,0-.47-.06-.67-.17"/>
    <rect class="cls-12" x="422.65" y="330.65" width=".27" height="2.52"/>
    <polygon class="cls-12" points="425.84 332.94 425.84 333.17 424.06 333.17 424.06 330.65 425.79 330.65 425.79 330.88 424.33 330.88 424.33 331.77 425.63 331.77 425.63 332 424.33 332 424.33 332.94 425.84 332.94"/>
    <polygon class="cls-12" points="428.89 330.65 428.89 333.17 428.67 333.17 427.05 331.12 427.05 333.17 426.79 333.17 426.79 330.65 427.01 330.65 428.63 332.69 428.63 330.65 428.89 330.65"/>
    <path class="cls-12" d="m430.03,330.65h1.02c.27,0,.5.05.7.16.2.11.36.26.47.45.11.19.17.41.17.65s-.06.46-.17.65c-.11.19-.27.34-.47.45-.2.11-.44.16-.7.16h-1.02v-2.52Zm1.01,2.29c.22,0,.41-.04.58-.13.17-.09.29-.21.38-.36.09-.15.14-.33.14-.53s-.05-.38-.14-.53c-.09-.15-.22-.28-.38-.36-.16-.09-.36-.13-.58-.13h-.74v2.06h.74Z"/>
    <path class="cls-12" d="m434.87,332.49h-1.4l-.3.67h-.28l1.15-2.52h.26l1.15,2.52h-.28l-.3-.67Zm-.1-.22l-.6-1.35-.6,1.35h1.21Z"/>
    <rect class="cls-12" x="348.47" y="192.87" width=".36" height="11.16"/>
    <path class="cls-2" d="m348.47,206.48c-1.36,0-2.46-1.1-2.46-2.46s1.1-2.46,2.46-2.46,2.46,1.1,2.46,2.46-1.1,2.46-2.46,2.46"/>
    <g>
      <path class="cls-11" d="m417.85,308.73c0,1.51-1.23,2.74-2.74,2.74s-2.74-1.23-2.74-2.74,1.23-2.74,2.74-2.74,2.74,1.23,2.74,2.74"/>
      <polygon class="cls-11" points="382.56 290.43 383.94 284.22 390.36 286.32 386.19 291.45 382.56 290.43"/>
      <path class="cls-20" d="m384.14,284.56l5.78,1.88-3.82,4.7-3.23-.91,1.27-5.68Zm-.39-.68l-1.5,6.73,4.04,1.13,4.52-5.56-7.06-2.3Z"/>
    </g>
    <g>
      <path class="cls-10" d="m463.36,154.39c-4.27,0-7.74,3.47-7.74,7.74,0,5.98,6.98,12.23,7.28,12.49.27.23.66.23.93,0,.3-.26,7.28-6.51,7.28-12.49,0-4.27-3.47-7.74-7.74-7.74m0,11.26c-1.94,0-3.52-1.58-3.52-3.52s1.58-3.52,3.52-3.52,3.52,1.57,3.52,3.52c.02,1.94-1.55,3.53-3.49,3.55h-.03v-.03Z"/>
      <path class="cls-20" d="m463.36,168.34c-3.43,0-6.21-2.78-6.21-6.21s2.78-6.21,6.21-6.21,6.21,2.78,6.21,6.21c.03,3.43-2.73,6.24-6.16,6.26-.02,0-.03,0-.05,0v-.05Z"/>
      <path class="cls-1" d="m463.92,167.09c-.28-1.71.28-3.73,1.29-5.94.06.22.08.46.06.67.08-.08.16-.16.28-.16l-.32.44.38-.24c-.1.18-.24.32-.38.44.14-.02.3-.08.46-.18-.22.14-.34.32-.38.52l.32-.26c-.34.32-.12.62-.22.79.38-.3.64-.72.6-1.53.12.16.24.28.36.36,0-.12.02-.22.08-.3-.02.22.02.4.08.54l.1-.46c.04.18.02.38-.02.56.1-.08.18-.18.26-.36-.06.36-.02.54.06.62l.04-.42c.08.38.22.62.4.73,0-.83-.22-1.65-1.23-2.34.2.02.4.04.62,0l-.14-.3.4.36-.18-.42c.12.18.26.3.38.38,0-.16-.06-.28-.14-.42.14.2.3.34.52.38l-.26-.32c.34.32.56.12.77.2-.85-1.11-1.81-.6-2.6-.1-.08-1.25-.52-1.49-1.19-1.69l.18.34.28.14-.22-.04c.02.08.14.14.34.2-.16-.02-.24,0-.24.06.14,0,.24.06.34.16l-.26-.06c.08.1.18.16.3.2l-.22-.04c.08.22.2.42.34.6-.5-.54-1.07-.75-1.71-.52-.62-.24-1.21-.02-1.71.52.16-.18.28-.38.36-.6l-.22.04c.12-.04.22-.1.3-.2l-.26.06c.1-.1.2-.16.34-.16-.02-.06-.08-.08-.24-.06.18-.06.3-.12.34-.2l-.24.04.3-.14.16-.34c-.66.2-1.09.44-1.17,1.69-.81-.5-1.75-1.01-2.6.1.2-.08.44.12.77-.2l-.28.32c.22-.04.4-.18.54-.38-.08.14-.14.26-.16.42.14-.08.28-.2.4-.38l-.2.42.4-.36-.12.3c.22.04.4.02.6,0-.99.69-1.21,1.51-1.23,2.34.2-.12.34-.36.42-.73l.04.42c.08-.08.12-.26.06-.62.06.18.16.28.26.36-.06-.18-.06-.38-.02-.56l.1.46c.06-.14.08-.32.08-.54.06.08.08.18.06.3.14-.08.26-.2.38-.36-.06.81.22,1.23.58,1.53-.08-.18.14-.48-.22-.79l.34.26c-.06-.2-.18-.38-.4-.52.18.1.34.16.46.18-.14-.12-.26-.26-.36-.44l.38.24-.32-.44c.1,0,.18.08.26.16,0-.22,0-.46.06-.67,1.01,2.2,1.59,4.23,1.31,5.94h.97Zm-.79-7.21h.02c.2.1.38.1.56,0h.02s-.1.1-.16.18c.14.02.28-.04.42-.14l-.14.2c.1.02.22-.02.36-.12l-.18.2c.12.02.24-.02.36-.12l-.14.22c.18.02.36.06.56.14-.66.12-1.05.36-1.37.67-.3-.32-.69-.56-1.35-.67.2-.08.38-.12.56-.14l-.14-.22c.12.1.24.14.36.12l-.18-.2c.14.1.24.14.36.12l-.16-.2c.16.1.3.16.42.14-.04-.08-.1-.14-.16-.18m-.06,1.71l-.06.12-.06-.38.12.26Zm-.08.12l-.14.28c.14-.06.34-.06.48-.28l.08.1-.02.06.04-.02.06.02-.02-.06.06-.1c.16.22.36.22.5.28l-.16-.28.24-.4-.02.28c.34-.1.68-.26,1.01-.44-.87,1.07-1.39,2.2-1.67,3.43-.26-1.23-.77-2.36-1.65-3.43.34.18.66.34,1.01.44l-.04-.28.24.4Zm.81-.12l.12-.26-.06.38-.06-.12Z"/>
    </g>
    <g>
      <path class="cls-10" d="m578.51,360.77c-4.27,0-7.74,3.47-7.74,7.74,0,5.98,6.98,12.23,7.28,12.49.27.23.66.23.93,0,.3-.26,7.28-6.51,7.28-12.49,0-4.27-3.47-7.74-7.74-7.74m0,11.26c-1.94,0-3.52-1.58-3.52-3.52s1.58-3.52,3.52-3.52,3.52,1.57,3.52,3.52c.02,1.94-1.55,3.53-3.49,3.55h-.03v-.03Z"/>
      <path class="cls-20" d="m578.51,374.71c-3.43,0-6.21-2.78-6.21-6.21s2.78-6.21,6.21-6.21,6.21,2.78,6.21,6.21c.03,3.43-2.73,6.24-6.16,6.26-.02,0-.03,0-.05,0v-.05Z"/>
      <path class="cls-2" d="m581.93,367.97l-3.16-3.49c-.06-.06-.13-.09-.22-.09s-.16.03-.22.09l-3.26,3.51c-.08.09-.1.21-.05.32.05.11.15.18.27.18h.84v2.53c0,.28.22.51.5.51h.6c.19,0,.34-.15.34-.34v-1.27c0-.19.15-.34.34-.34h1.18c.19,0,.34.15.34.34v1.27c0,.19.15.34.34.34h.58c.28,0,.51-.23.51-.51v-2.53h.87c.16,0,.3-.13.3-.3,0-.09-.04-.17-.1-.22"/>
    </g>
    <text class="cls-3" transform="translate(555.67 392.98)"><tspan x="0" y="0">Dzidzantún</tspan></text>
    <polygon class="cls-43" points="662.4 184.48 -4.04 200.35 -3.95 203.61 662.48 187.74 662.4 184.48"/>
    <text class="cls-5" transform="translate(349.92 336.4)"><tspan class="cls-38" x="0" y="0">S</tspan><tspan class="cls-26" x="3.79" y="0">an </tspan><tspan class="cls-34" x="13.33" y="0">R</tspan><tspan x="17.47" y="0">oque</tspan></text>
    <rect class="cls-15" x="345.88" y="190.39" width="5.9" height="5.9"/>
    <polygon class="cls-12" points="576.06 196.07 575.7 196.07 575.7 188.91 576.06 187.91 576.06 196.07"/>
    <path class="cls-2" d="m575.93,199.5c-1.36,0-2.46-1.1-2.46-2.46s1.1-2.46,2.46-2.46,2.46,1.1,2.46,2.46-1.1,2.46-2.46,2.46"/>
    <rect class="cls-16" x="572.98" y="184.8" width="5.9" height="5.9"/>
    <g>
      <text class="cls-7" transform="translate(392.61 276.25)"><tspan class="cls-48" x="0" y="0">C</tspan><tspan x="2.28" y="0" xml:space="preserve">u     b</tspan><tspan class="cls-31" x="11.02" y="0">r</tspan><tspan class="cls-42" x="12.29" y="0">es </tspan></text>
      <text class="cls-6" transform="translate(392.04 278.7)"><tspan x="0" y="0">de la Hacienda</tspan></text>
      <polygon class="cls-54" points="401.01 276.35 399.98 274.09 399.25 275.17 398.61 274.1 397.5 276.32 397.06 276.1 398.57 273.08 399.27 274.25 400.06 273.09 401.46 276.15 401.01 276.35"/>
      <path class="cls-54" d="m400.14,276.41h-1.83l.93-1.65.9,1.65Zm-1.13-.41h.44l-.22-.4-.22.4Z"/>
    </g>
    <g>
      <path class="cls-10" d="m207.63,382.74c-4.27,0-7.74,3.47-7.74,7.74,0,5.98,6.98,12.23,7.28,12.49.27.23.66.23.93,0,.3-.26,7.28-6.51,7.28-12.49,0-4.27-3.47-7.74-7.74-7.74m0,11.26c-1.94,0-3.52-1.58-3.52-3.52s1.58-3.52,3.52-3.52,3.52,1.57,3.52,3.52c.02,1.94-1.55,3.53-3.49,3.55h-.03v-.03Z"/>
      <path class="cls-20" d="m207.63,396.68c-3.43,0-6.21-2.78-6.21-6.21s2.78-6.21,6.21-6.21,6.21,2.78,6.21,6.21c.03,3.43-2.73,6.24-6.16,6.26-.02,0-.03,0-.05,0v-.05Z"/>
      <path class="cls-2" d="m211.04,389.94l-3.16-3.49c-.06-.06-.13-.09-.22-.09s-.16.03-.22.09l-3.26,3.51c-.08.09-.1.21-.05.32.05.11.15.18.27.18h.84v2.53c0,.28.22.51.5.51h.6c.19,0,.34-.15.34-.34v-1.27c0-.19.15-.34.34-.34h1.18c.19,0,.34.15.34.34v1.27c0,.19.15.34.34.34h.58c.28,0,.51-.23.51-.51v-2.53h.87c.16,0,.3-.13.3-.3,0-.09-.04-.17-.1-.22"/>
    </g>
    <text class="cls-3" transform="translate(195.62 411.56) rotate(1.1)"><tspan x="0" y="0">Conkal</tspan></text>
    <polyline class="cls-19" points="186.36 435.25 191.25 396.88 191.25 354.88 162.37 297.13 148.52 239.46 142.3 200.09"/>
    <g>
      <polygon class="cls-25" points="86.79 353.41 83.09 360.81 90.49 360.81 86.79 353.41"/>
      <polygon class="cls-25" points="102.21 353.41 98.51 356.18 94.81 353.41 94.81 360.81 102.21 360.81 102.21 353.41"/>
      <path class="cls-25" d="m76.31,353.41h-3.7v7.4h3.7c2.04,0,3.7-1.66,3.7-3.7s-1.66-3.7-3.7-3.7"/>
      <path class="cls-25" d="m73.94,367.29c1.01,0,1.68.64,1.68,1.62s-.67,1.62-1.68,1.62h-1.34v-3.24h1.34Zm-.69.6v2.03h.68c.68,0,1.01-.43,1.01-1.02s-.33-1.02-1.01-1.02h-.68Z"/>
      <rect class="cls-25" x="76.25" y="367.29" width=".65" height="3.24"/>
      <path class="cls-25" d="m79.88,368.11c-.25-.16-.56-.28-.92-.28s-.62.14-.62.39.28.31.67.38l.18.03c.58.1,1.03.34,1.03.91,0,.72-.63,1.06-1.33,1.06-.49,0-1.02-.14-1.37-.42l.34-.52c.23.19.62.35,1.03.35.36,0,.64-.14.64-.39,0-.22-.24-.31-.69-.38l-.21-.03c-.57-.09-.99-.34-.99-.93,0-.68.6-1.03,1.29-1.03.45,0,.83.1,1.24.35l-.31.53Z"/>
      <polygon class="cls-25" points="83.21 367.89 82.2 367.89 82.2 370.53 81.55 370.53 81.55 367.89 80.55 367.89 80.55 367.29 83.21 367.29 83.21 367.89"/>
      <path class="cls-25" d="m85.06,367.29c.77,0,1.19.37,1.19.99,0,.53-.37.9-.99.96l1,1.3h-.78l-.94-1.29h-.19v1.29h-.65v-3.24h1.37Zm-.72.59v.79h.71c.35,0,.54-.13.54-.4s-.19-.39-.54-.39h-.71Z"/>
      <rect class="cls-25" x="86.89" y="367.29" width=".65" height="3.24"/>
      <polygon class="cls-25" points="90.68 367.89 89.67 367.89 89.67 370.53 89.03 370.53 89.03 367.89 88.02 367.89 88.02 367.29 90.68 367.29 90.68 367.89"/>
      <path class="cls-25" d="m94.32,368.91c0,.97-.71,1.68-1.7,1.68s-1.7-.71-1.7-1.68.7-1.68,1.7-1.68,1.7.71,1.7,1.68m-2.73,0c0,.63.43,1.06,1.03,1.06s1.03-.43,1.03-1.06-.43-1.06-1.03-1.06-1.03.43-1.03,1.06"/>
      <path class="cls-25" d="m97.47,367.29c1.01,0,1.68.64,1.68,1.62s-.67,1.62-1.68,1.62h-1.34v-3.24h1.34Zm-.69.6v2.03h.68c.68,0,1.01-.43,1.01-1.02s-.33-1.02-1.01-1.02h-.68Z"/>
      <polygon class="cls-25" points="102.21 370.53 99.78 370.53 99.78 367.29 102.19 367.29 102.19 367.88 100.43 367.88 100.43 368.6 102.11 368.6 102.11 369.19 100.43 369.19 100.43 369.94 102.21 369.94 102.21 370.53"/>
      <path class="cls-25" d="m74.35,376.09h-.69l-.28-.76h-1.38l-.28.76h-.67l1.26-3.24h.79l1.26,3.24Zm-2.13-1.35h.94l-.47-1.25-.47,1.25Z"/>
      <path class="cls-25" d="m76.19,372.85c.77,0,1.19.37,1.19.99,0,.53-.37.9-.99.96l1,1.3h-.78l-.94-1.29h-.19v1.29h-.65v-3.24h1.37Zm-.73.59v.79h.71c.35,0,.53-.13.53-.4s-.19-.39-.53-.39h-.71Z"/>
      <polygon class="cls-25" points="80.36 373.45 79.36 373.45 79.36 376.09 78.71 376.09 78.71 373.45 77.71 373.45 77.71 372.84 80.36 372.84 80.36 373.45"/>
      <polygon class="cls-25" points="83.27 376.09 80.85 376.09 80.85 372.84 83.26 372.84 83.26 373.44 81.5 373.44 81.5 374.16 83.17 374.16 83.17 374.75 81.5 374.75 81.5 375.49 83.27 375.49 83.27 376.09"/>
      <polygon class="cls-25" points="88.75 376.09 88.1 376.09 88.1 373.64 87.3 375.77 86.62 375.77 85.82 373.66 85.82 376.09 85.17 376.09 85.17 372.84 86.12 372.84 86.96 375.03 87.8 372.84 88.75 372.84 88.75 376.09"/>
      <path class="cls-25" d="m91.95,376.09h-2.42v-3.24h2.4v.59h-1.76v.72h1.68v.59h-1.68v.75h1.78v.59Zm-1.65-3.52l.47-.73h.72l-.61.73h-.58Z"/>
      <path class="cls-25" d="m94.03,372.85c.77,0,1.19.37,1.19.99,0,.53-.37.9-.99.96l1,1.3h-.78l-.94-1.29h-.19v1.29h-.65v-3.24h1.37Zm-.73.59v.79h.71c.35,0,.53-.13.53-.4s-.19-.39-.53-.39h-.71Z"/>
      <rect class="cls-25" x="95.85" y="372.84" width=".65" height="3.24"/>
      <path class="cls-25" d="m98.62,372.84c1.01,0,1.68.64,1.68,1.62s-.67,1.62-1.68,1.62h-1.34v-3.24h1.34Zm-.69.6v2.03h.68c.68,0,1.01-.43,1.01-1.02s-.33-1.02-1.01-1.02h-.68Z"/>
      <path class="cls-25" d="m103.77,376.09h-.69l-.28-.76h-1.38l-.28.76h-.67l1.26-3.24h.79l1.26,3.24Zm-2.13-1.35h.94l-.47-1.25-.47,1.25Z"/>
    </g>
    <g>
      <rect class="cls-55" x="95.84" y="393.32" width="13.44" height="7.25" transform="translate(-28.59 8.51) rotate(-4.17)"/>
      <path class="cls-20" d="m108.54,393.38l.45,6.23-12.41.91-.45-6.23,12.41-.91m.92-1.07l-14.41,1.05.6,8.22,14.41-1.05-.6-8.22h0Z"/>
    </g>
    <g>
      <g>
        <path class="cls-10" d="m498.19,244.34c0,.26-.04.49-.13.7-.09.21-.22.39-.38.54-.17.15-.37.27-.61.35-.24.08-.5.12-.8.12-.25,0-.5-.03-.75-.08-.25-.05-.47-.13-.67-.23-.2-.1-.36-.22-.49-.36-.13-.14-.19-.29-.19-.47v-.99h.18c.1.62.31,1.07.61,1.34.3.27.72.41,1.24.41.16,0,.31-.02.45-.06.14-.04.27-.1.38-.18.11-.08.2-.18.27-.3.07-.12.1-.25.1-.41,0-.27-.08-.5-.25-.69-.17-.19-.42-.39-.76-.58l-1.14-.67c-.39-.23-.67-.47-.84-.71-.16-.24-.25-.53-.25-.88,0-.24.04-.46.13-.65.09-.19.21-.36.37-.49.16-.14.35-.24.56-.32.22-.07.46-.11.73-.11.23,0,.46.02.7.07.24.05.45.12.64.22.19.1.35.21.47.35.12.14.18.29.18.47v.99h-.18c-.1-.62-.3-1.07-.6-1.33-.29-.26-.7-.4-1.22-.4-.13,0-.27.02-.4.06-.13.04-.24.1-.34.18-.1.08-.18.18-.24.3-.06.12-.09.25-.09.39s.02.26.06.36c.04.1.11.2.19.3.09.09.19.18.32.27.13.09.28.18.44.28l1.14.67c.2.12.37.23.51.34.14.11.26.22.36.34.09.12.16.25.21.38.05.14.07.29.07.46Z"/>
        <path class="cls-10" d="m505.63,245.89c-.1.03-.23.05-.37.05-.1,0-.23-.01-.37-.04s-.28-.08-.43-.16c-.14-.08-.29-.2-.43-.37-.14-.16-.26-.37-.36-.64l-.23-.6h-2.59l-.74,1.76h-.42l2.59-6.1h.28l2.03,4.95c.07.17.14.32.21.44s.14.22.22.29c.08.07.17.13.26.17.09.04.2.06.33.07v.18Zm-4.62-2.13h2.27l-1.11-2.68-1.16,2.68Z"/>
        <path class="cls-10" d="m507.32,240.9c0-.28-.06-.5-.18-.67-.12-.17-.34-.25-.66-.25h-.09v-.18h.6c.3,0,.55.05.74.15.19.1.36.23.5.41l3.24,4.02v-4.58h.37v6.19h-.18l-3.98-4.95v4.85h-.37v-4.99Z"/>
        <path class="cls-10" d="m518.84,239.79v.37h-2.08v5.73h-.83v-5.73h-.83c-.37,0-.65.08-.86.25-.2.17-.3.44-.3.81h-.18v-.69c0-.09.01-.18.03-.27.02-.09.06-.17.12-.24.06-.07.14-.12.24-.17.1-.04.23-.06.39-.06h4.3Z"/>
        <path class="cls-10" d="m525.32,245.89c-.1.03-.23.05-.37.05-.1,0-.23-.01-.37-.04s-.28-.08-.43-.16c-.14-.08-.29-.2-.43-.37-.14-.16-.26-.37-.36-.64l-.23-.6h-2.59l-.74,1.76h-.42l2.59-6.1h.28l2.03,4.95c.07.17.14.32.21.44s.14.22.22.29c.08.07.17.13.26.17.09.04.2.06.33.07v.18Zm-4.62-2.13h2.27l-1.11-2.68-1.16,2.68Z"/>
        <path class="cls-10" d="m547.62,241.73c-.12-.6-.33-1.05-.65-1.33-.32-.28-.73-.43-1.24-.43-.3,0-.59.05-.86.15-.27.1-.5.27-.71.5-.2.23-.36.53-.48.91-.12.38-.18.84-.18,1.4,0,.35.04.68.12,1.02.08.33.21.63.39.89.18.26.41.47.69.63.28.16.62.24,1.01.24.46,0,.86-.11,1.19-.33.33-.22.63-.54.89-.96l.18.14c-.15.29-.31.53-.49.73s-.38.35-.59.47c-.21.12-.44.2-.68.25-.24.05-.5.07-.78.07-.44,0-.83-.08-1.19-.25-.35-.16-.66-.39-.91-.67-.25-.28-.44-.62-.57-1-.13-.38-.2-.79-.2-1.23,0-.46.08-.9.23-1.3.15-.4.36-.76.61-1.06.26-.3.56-.54.91-.71.35-.17.72-.26,1.11-.26.51,0,.95.07,1.32.22.37.14.64.32.8.52.12.14.18.34.2.59.02.25.03.52.03.8h-.18Z"/>
        <path class="cls-10" d="m551.06,245.52h3.28v.37h-4.11v-4.99c0-.28-.04-.5-.12-.67-.08-.17-.25-.25-.53-.25h-.18v-.18h.83c.16,0,.29.01.4.04.11.03.19.08.26.17.06.08.11.2.13.34.02.14.04.33.04.56v4.62Z"/>
        <path class="cls-10" d="m561.45,245.89c-.1.03-.23.05-.37.05-.1,0-.23-.01-.37-.04-.14-.02-.28-.08-.43-.16-.14-.08-.29-.2-.43-.37-.14-.16-.26-.37-.36-.64l-.23-.6h-2.59l-.74,1.76h-.42l2.59-6.1h.28l2.03,4.95c.07.17.14.32.21.44s.14.22.22.29c.08.07.17.13.26.17.09.04.2.06.33.07v.18Zm-4.62-2.13h2.27l-1.11-2.68-1.16,2.68Z"/>
        <path class="cls-10" d="m564.59,243.07h-.65v2.82h-.83v-4.99c0-.28-.04-.5-.12-.67-.08-.17-.25-.25-.53-.25h-.18v-.18h2.4c.2,0,.43.02.69.05.26.03.52.11.76.23.24.12.44.29.61.5.17.22.25.51.25.88,0,.27-.05.49-.14.67-.09.18-.21.34-.36.46-.14.12-.31.21-.48.28-.18.07-.34.12-.5.16l.97,1.62c.12.2.23.36.33.49.1.13.2.24.3.32.1.08.2.14.3.18.1.04.21.06.32.07v.18s-.12.05-.23.06c-.1.02-.21.03-.33.03-.16,0-.31-.02-.45-.06-.14-.04-.27-.12-.4-.22-.13-.1-.26-.24-.39-.42-.13-.17-.27-.39-.42-.64l-.92-1.57Zm.05-.32c.13,0,.28-.02.44-.07.16-.05.32-.12.47-.23.15-.1.27-.23.37-.4.1-.16.15-.36.15-.6s-.05-.45-.15-.62c-.1-.17-.23-.31-.37-.42-.15-.1-.3-.18-.47-.23-.16-.05-.31-.07-.44-.07-.12,0-.24,0-.37.03-.13.02-.24.04-.33.06v2.45c.09.02.2.05.33.06.13.02.25.03.37.03Z"/>
        <path class="cls-10" d="m574.68,245.89c-.1.03-.23.05-.37.05-.1,0-.23-.01-.37-.04-.14-.02-.28-.08-.43-.16-.14-.08-.29-.2-.43-.37-.14-.16-.26-.37-.36-.64l-.23-.6h-2.59l-.74,1.76h-.42l2.59-6.1h.28l2.03,4.95c.07.17.14.32.21.44s.14.22.22.29c.08.07.17.13.26.17.09.04.2.06.33.07v.18Zm-4.62-2.13h2.27l-1.11-2.68-1.16,2.68Z"/>
      </g>
      <g>
        <path class="cls-10" d="m504.88,250.61h.92v.22h-1.16v-1.76h1.13v.22h-.88v.53h.83v.21h-.83v.59Z"/>
        <path class="cls-10" d="m512.59,250.55c-.07.09-.16.17-.27.23-.11.06-.24.09-.4.09-.13,0-.26-.02-.37-.07-.11-.05-.21-.11-.29-.19-.08-.08-.15-.18-.19-.29-.05-.11-.07-.24-.07-.37s.02-.26.07-.38c.05-.11.11-.21.2-.29.08-.08.18-.14.3-.19.11-.04.24-.07.37-.07.06,0,.12,0,.18.02.06.01.12.03.18.05.06.02.11.05.15.09.05.03.09.07.12.12l-.19.15c-.04-.06-.1-.11-.18-.15-.08-.04-.16-.06-.25-.06-.1,0-.19.02-.28.06s-.15.09-.21.15c-.06.06-.1.14-.13.22-.03.09-.05.18-.05.27s.02.19.05.28c.03.09.07.16.13.22.06.06.13.11.21.15s.17.05.27.05.19-.02.27-.06c.08-.04.15-.1.2-.17l.2.13Z"/>
        <path class="cls-10" d="m519.55,249.95c0,.14-.02.26-.07.37s-.11.21-.19.29c-.08.08-.18.15-.3.19-.11.05-.24.07-.37.07s-.26-.02-.37-.07c-.11-.05-.21-.11-.29-.19-.08-.08-.15-.18-.19-.29-.05-.11-.07-.24-.07-.37s.02-.26.07-.38c.05-.11.11-.21.19-.29.08-.08.18-.14.29-.19.11-.04.24-.07.37-.07s.26.02.37.07c.11.04.21.11.3.19.08.08.15.18.19.29.05.11.07.24.07.38Zm-.27,0c0-.1-.02-.19-.05-.27-.03-.09-.08-.16-.13-.22-.06-.06-.13-.12-.21-.15s-.17-.06-.28-.06-.19.02-.27.06-.15.09-.21.15c-.06.06-.1.14-.13.22-.03.09-.05.18-.05.27s.02.19.05.28c.03.09.08.16.13.22.06.06.13.11.21.15.08.04.17.05.27.05s.19-.02.28-.05c.08-.04.15-.09.21-.15.06-.06.1-.14.13-.22.03-.09.05-.18.05-.28Z"/>
        <path class="cls-10" d="m525.4,250.51h0l.53-1.44h.27l-.69,1.76h-.23l-.68-1.76h.27l.53,1.44Z"/>
        <path class="cls-10" d="m531.61,250.83h-.25v-1.76h.25v1.76Z"/>
        <path class="cls-10" d="m537.25,250.61h.78v.22h-1.03v-1.76h.25v1.54Z"/>
        <path class="cls-10" d="m543.48,250.61h.78v.22h-1.03v-1.76h.25v1.54Z"/>
        <path class="cls-10" d="m549.53,250.83h-.27l.76-1.76h.22l.75,1.76h-.28l-.18-.43h-.83l-.18.43Zm.26-.65h.66l-.33-.82-.33.82Z"/>
        <path class="cls-10" d="m557.47,249.43c-.05-.06-.12-.1-.2-.14s-.17-.05-.27-.05-.2.02-.28.06-.15.09-.21.15c-.06.06-.1.14-.13.22-.03.09-.05.18-.05.27s.02.19.05.28c.03.09.08.16.13.22.06.06.13.11.21.15.08.04.18.05.28.05.08,0,.16,0,.23-.02.07-.01.13-.04.18-.06v-.49h-.39v-.21h.63v.85c-.09.05-.19.09-.3.11s-.23.04-.36.04c-.14,0-.26-.02-.38-.07-.11-.05-.21-.11-.3-.19-.08-.08-.15-.18-.19-.29s-.07-.24-.07-.37.02-.26.07-.38c.05-.11.11-.21.2-.29.08-.08.18-.14.3-.19.11-.04.24-.07.37-.07.14,0,.27.02.38.06.11.04.2.1.27.17l-.17.18Z"/>
        <path class="cls-10" d="m563.28,250.61h.92v.22h-1.16v-1.76h1.13v.22h-.88v.53h.83v.21h-.83v.59Z"/>
      </g>
      <g>
        <polygon class="cls-23" points="531.53 242.34 530.64 241.5 530.48 241.67 531.19 242.34 530.65 242.34 529.82 241.63 529.67 241.81 530.29 242.34 528.85 242.34 528.85 242.58 530.28 242.58 529.67 243.09 529.82 243.27 530.65 242.58 531.19 242.58 530.48 243.26 530.64 243.43 531.53 242.58 532.37 242.58 532.37 242.34 531.53 242.34"/>
        <polygon class="cls-23" points="539.06 240.66 537.66 240.66 538.27 240.15 538.12 239.97 537.29 240.66 536.8 240.66 537.46 240.04 537.29 239.87 536.46 240.66 535.56 240.66 535.56 240.9 536.43 240.9 537.25 241.81 537.43 241.65 536.75 240.9 537.29 240.9 538.12 241.61 538.27 241.43 537.65 240.9 539.06 240.9 539.06 240.66"/>
        <g>
          <path class="cls-23" d="m537.83,247.05c-.33-.37-3.28-3.67-4.36-4.8l-.2-.2h0c-.09-.09-.15-.15-.19-.18-.05-.04-.12-.11-.2-.19-.7-.71-2.34-2.36-5.61.63l-.19.17.18.17c.08.08,1.96,1.87,3.8,1.61.82-.12,1.46-.56,1.94-1.36l.05-.08-.35-.35-.08.13c-.41.7-.95,1.09-1.63,1.19-1.3.19-2.75-.92-3.21-1.31,2.8-2.44,4.12-1.11,4.76-.47.09.09.17.17.24.22.02.01.05.05.15.14l.16.17c.87.91,3.16,3.46,4.38,4.83l.08.09.26-.24.08-.08-.08-.09Z"/>
          <path class="cls-23" d="m540.66,240.63c-1-1.13-2.05-1.69-3.13-1.66-1.47.03-2.44,1.13-2.57,1.28l-1.52,1.46-.11.11.33.34,1.22-1.19h0s.42-.4.42-.4h0s.91-1.1,2.22-1.12h.05c.87,0,1.73.45,2.57,1.35-.35.36-1.46,1.41-2.67,1.36-.86-.03-1.66-.47-2.2-1.2l-.03-.05-.22.24-.1.11c.85,1.14,1.96,1.34,2.54,1.36.03,0,.06,0,.09,0,1.69,0,3.04-1.62,3.1-1.69l.13-.16-.13-.15Z"/>
          <rect class="cls-23" x="532.12" y="235.06" width=".47" height="6.21" transform="translate(-9.26 454.44) rotate(-45.87)"/>
        </g>
      </g>
    </g>
    <polygon class="cls-18" points="504.27 229.28 505.23 220.78 505.74 217.68 508.27 205.09 570.59 209.41 568.65 227.22 528.3 222.87 527.44 229.28 507.54 227.37 507.24 229.49 504.27 229.28"/>
    <g>
      <path class="cls-22" d="m546.61,223.98l13.63-1.98c.1-.01.19-.07.25-.15l4.43-6.08,4.99-.81-1.24,11.36-22.06-2.34Z"/>
      <path class="cls-20" d="m569.48,215.41l-1.14,10.5-18.72-1.99,10.68-1.55c.2-.03.38-.14.5-.3l4.34-5.96,4.35-.71m.85-.9l-5.62.91-4.52,6.2-16.58,2.41,25.4,2.7,1.33-12.22h0Z"/>
    </g>
    <g>
      <rect class="cls-12" x="543.81" y="221.66" width=".36" height="11.15" transform="translate(-5.76 14.31) rotate(-1.5)"/>
      <path class="cls-2" d="m544.25,235.47c-1.36.04-2.48-1.03-2.52-2.39s1.03-2.49,2.39-2.52,2.48,1.04,2.52,2.39-1.03,2.48-2.39,2.52"/>
    </g>
    <g>
      <g>
        <path class="cls-30" d="m535.3,204.35c-3.29,0-5.96-2.63-5.96-5.85s2.68-5.85,5.96-5.85,5.96,2.63,5.96,5.85-2.67,5.85-5.96,5.85Zm0-11.28c-3.06,0-5.54,2.43-5.54,5.43s2.49,5.43,5.54,5.43,5.54-2.43,5.54-5.43-2.49-5.43-5.54-5.43Z"/>
        <path class="cls-30" d="m536.05,195.71c.08-.08.13-.19.13-.31,0-.25-.2-.45-.45-.45-.16,0-.29.08-.37.2t0,0s-.03.05-.04.08c0,0,0,0,0,0-.12.2-.29.37-.49.49-.03.02-.06.04-.1.05-.02,0-.04.02-.05.02h0s0,0-.01,0c0,0,0,0,0,0-.15.06-.32.09-.49.09-.12,0-.24-.02-.36-.05h0s0,0,0,0c-.01,0-.02,0-.03-.01,0,0,0,0,0,0-.11-.03-.23-.05-.36-.05-.25,0-.49.07-.69.19-.16.1-.29.22-.4.38-.02.04-.07.06-.12.06-.07,0-.12-.05-.14-.11,0,0,0,0,0-.01,0-.06-.01-.11-.01-.17,0-.55.34-1.03.82-1.23.11-.05.24-.08.37-.09h0s.09,0,.14,0c.03,0,.05,0,.08,0,.04-.22.16-.41.32-.54.01-.01.03-.02.04-.03,0,0,0,0,0,0,.38-.28.83-.47,1.33-.53.11-.01.23-.02.34-.02.29,0,.58.05.84.13,0,0,0,0,0,0,.11.03.22.08.32.12,0,0,0,0,0,0,.14.07.26.17.37.28.24.25.38.59.38.97,0,.33-.11.64-.3.88-.08.09-.17.17-.26.25-.34.31-.71.57-1.11.78-.35.18-.71.33-1.09.44-.55.15-1.14.22-1.73.19-.25-.01-.51-.05-.76-.1-.05-.01-.11-.02-.16-.03.03-.04.07-.08.11-.12.12-.12.25-.24.39-.34.06-.05.13-.09.2-.13.21-.13.44-.23.69-.29h0c.24-.07.5-.1.76-.1.07,0,.26,0,.44-.06.01,0,.03,0,.04-.01.18-.06.35-.13.52-.21.31-.15.59-.34.84-.57.01-.01.02-.02.03-.03,0,0,0,0,0,0Z"/>
      </g>
      <g>
        <g>
          <path class="cls-30" d="m543.2,199.43h-.54v-3.26c0-.18-.03-.33-.08-.44-.05-.11-.17-.17-.35-.17h-.12v-.12h1.56c.13,0,.28.01.45.04.17.02.34.08.49.16.16.08.29.2.4.37.11.16.16.38.16.65,0,.17-.03.32-.08.44s-.12.23-.2.31c-.08.08-.17.15-.27.21-.1.05-.2.09-.29.12-.1.03-.19.04-.28.05-.09.01-.16.02-.21.02h-.66v1.63Zm.45-1.84c.08,0,.18-.02.29-.05.11-.03.21-.09.3-.16.1-.08.18-.18.24-.3.07-.12.1-.28.1-.46s-.03-.33-.1-.46c-.07-.12-.15-.22-.24-.3-.1-.08-.2-.13-.3-.16-.11-.03-.2-.05-.29-.05-.08,0-.16,0-.24.02-.08.01-.15.03-.21.04v1.81c.06.02.13.03.21.04s.16.02.24.02Z"/>
          <path class="cls-30" d="m546.51,199.19h2.13v.24h-2.67v-3.26c0-.18-.03-.33-.08-.44-.05-.11-.17-.17-.35-.17h-.12v-.12h.54c.1,0,.19,0,.26.03s.13.05.17.11.07.13.09.22c.02.09.02.22.02.37v3.02Z"/>
          <path class="cls-30" d="m552.67,199.43c-.07.02-.15.03-.24.03-.07,0-.15,0-.24-.02s-.18-.05-.28-.11-.19-.13-.28-.24c-.09-.1-.17-.24-.23-.42l-.15-.39h-1.68l-.48,1.15h-.27l1.68-3.99h.18l1.32,3.23c.05.11.09.21.14.29s.09.14.14.19c.05.05.11.08.17.11s.13.04.22.05v.12Zm-3.01-1.39h1.47l-.72-1.75-.75,1.75Z"/>
          <path class="cls-30" d="m554.26,197.47l1.26-2.03h.27l-1.41,2.3v1.69h-.54v-1.65l-1.02-1.55c-.06-.09-.12-.17-.18-.25-.06-.08-.12-.15-.19-.21-.07-.06-.14-.11-.23-.14-.08-.04-.18-.06-.28-.07v-.12h.54c.11,0,.21.02.3.06.09.04.17.09.24.15s.14.13.2.21.11.16.17.24l.87,1.36Z"/>
          <path class="cls-30" d="m559.32,199.43c-.07.02-.15.03-.24.03-.07,0-.15,0-.24-.02s-.18-.05-.28-.11-.19-.13-.28-.24c-.09-.1-.17-.24-.23-.42l-.15-.39h-1.68l-.48,1.15h-.27l1.68-3.99h.18l1.32,3.23c.05.11.09.21.14.29s.09.14.14.19c.05.05.11.08.17.11s.13.04.22.05v.12Zm-3.01-1.39h1.47l-.72-1.75-.75,1.75Z"/>
          <path class="cls-30" d="m560.85,198.58c.1-.23.18-.43.25-.57s.12-.27.16-.37c.04-.1.08-.19.11-.25.03-.07.06-.14.08-.2s.06-.14.09-.22c.03-.08.08-.19.13-.31.05-.13.12-.29.2-.48.08-.19.18-.43.3-.72h.29l-1.73,4.05h-.11l-1.39-3.34c-.05-.11-.09-.21-.14-.29-.04-.08-.09-.14-.14-.19-.05-.05-.11-.08-.17-.11s-.13-.04-.22-.05v-.12s.05,0,.09,0c.05,0,.08,0,.11,0,.07,0,.15,0,.25.02.09.02.19.05.28.1.09.05.19.13.28.23.09.1.17.24.24.41l1.03,2.44Z"/>
          <path class="cls-30" d="m563.07,195.44h.54v3.26c0,.18.03.33.08.44.05.11.17.17.35.17h.12v.12h-.54c-.1,0-.19,0-.26-.03s-.13-.05-.17-.11-.07-.13-.09-.22c-.02-.09-.02-.22-.02-.37v-3.26Z"/>
          <path class="cls-30" d="m566.36,198.58c.1-.23.18-.43.25-.57s.12-.27.16-.37c.04-.1.08-.19.11-.25.03-.07.06-.14.08-.2s.06-.14.09-.22c.03-.08.08-.19.13-.31.05-.13.12-.29.2-.48.08-.19.18-.43.3-.72h.29l-1.73,4.05h-.11l-1.39-3.34c-.05-.11-.09-.21-.14-.29s-.09-.14-.14-.19c-.05-.05-.11-.08-.17-.11s-.13-.04-.22-.05v-.12s.05,0,.09,0c.05,0,.08,0,.11,0,.07,0,.15,0,.25.02.09.02.19.05.28.1.09.05.19.13.28.23.09.1.17.24.24.41l1.03,2.44Z"/>
          <path class="cls-30" d="m571.57,199.43c-.07.02-.15.03-.24.03-.07,0-.15,0-.24-.02s-.18-.05-.28-.11-.19-.13-.28-.24c-.09-.1-.17-.24-.23-.42l-.15-.39h-1.68l-.48,1.15h-.27l1.68-3.99h.18l1.32,3.23c.05.11.09.21.14.29s.09.14.14.19c.05.05.11.08.17.11s.13.04.22.05v.12Zm-3.01-1.39h1.47l-.72-1.75-.75,1.75Z"/>
        </g>
        <text class="cls-8" transform="translate(542.53 201.36)"><tspan class="cls-27" x="0" y="0">BE</tspan><tspan class="cls-32" x="2.51" y="0">A</tspan><tspan class="cls-27" x="3.9" y="0">CH C</tspan><tspan class="cls-44" x="8.85" y="0">L</tspan><tspan class="cls-27" x="9.96" y="0">UB • SAN</tspan><tspan class="cls-47" x="19.16" y="0">T</tspan><tspan class="cls-50" x="20.25" y="0">A CLA</tspan><tspan class="cls-36" x="26.35" y="0">R</tspan><tspan class="cls-50" x="27.65" y="0">A</tspan></text>
      </g>
      <g>
        <path class="cls-30" d="m531.05,199.81c.27.08.47.28.73.39,1.43.59,2.75.38,4.03-.41.75-.47,1.52-.9,2.41-1.04.53-.08,1.07-.08,1.53.29.06.05.13.08.14.19-.31,0-.61,0-.91.07-.86.2-1.61.62-2.33,1.12-.26.18-.5.38-.76.57-1.13.78-2.36.79-3.56.02-.5-.32-.92-.71-1.27-1.19Z"/>
        <path class="cls-30" d="m531.49,198.53c.41.06.81.2,1.22.24,1.08.12,2.05-.13,2.96-.72.61-.4,1.26-.7,1.99-.81.53-.08,1.05-.03,1.49.35.02.02.04.04.06.07,0,.01.01.03.02.05-.89-.29-1.65.11-2.41.46-.45.21-.88.49-1.31.75-.67.39-1.38.61-2.15.53-.73-.07-1.37-.35-1.86-.93h0Z"/>
        <path class="cls-30" d="m538.65,200.87c-.05.3-.25.51-.44.72-.88.98-1.98,1.52-3.31,1.51-.93-.01-1.71-.43-2.43-.99-.06-.05-.07-.1-.04-.17.46.16.92.33,1.42.39.9.1,1.76-.05,2.6-.33.74-.25,1.42-.62,2.06-1.05.04-.03.08-.07.14-.07h0Z"/>
      </g>
    </g>
    <g>
      <g>
        <path class="cls-24" d="m305.9,210.84c-3.09,0-5.61-2.47-5.61-5.5s2.52-5.5,5.61-5.5,5.61,2.47,5.61,5.5-2.52,5.5-5.61,5.5Zm0-10.61c-2.87,0-5.21,2.29-5.21,5.1s2.34,5.1,5.21,5.1,5.21-2.29,5.21-5.1-2.34-5.1-5.21-5.1Z"/>
        <path class="cls-33" d="m305.29,207.13s-3.2-5.35,3.1-5.69c0,0-3.3-1.68-4.8,1.71,0,0-.71,2.42,1.7,3.98Z"/>
        <path class="cls-56" d="m305.01,207.63s-4.25-2.98-.68-6.3c0,0-3.2.92-1.97,4.52,0,0,1.09,1.85,2.65,1.78Z"/>
        <path class="cls-24" d="m301.37,204.48s-1.02,3.97,3.1,4.69c0,0,1.56.48,4.08-.68,0,0,1.6-1.21,4.8-1.36,0,0-2.08-.6-3.33-.25l-2.71.96s-1.95.51-3.38-.03c0,0-1.77-.2-2.55-3.32Z"/>
      </g>
      <g>
        <path class="cls-28" d="m315.5,205.46h-.56v-3.36c0-.19-.03-.34-.08-.45-.05-.11-.17-.17-.36-.17h-.12v-.12h1.61c.13,0,.29.01.46.04.18.02.35.08.51.17.16.09.3.21.41.38.11.17.17.39.17.67,0,.18-.03.33-.08.46s-.12.23-.2.32c-.08.09-.17.16-.28.21-.1.05-.2.09-.3.12-.1.03-.2.05-.28.06-.09.01-.16.02-.22.02h-.68v1.68Zm.46-1.9c.09,0,.18-.02.29-.05.11-.03.21-.09.31-.17.1-.08.18-.18.25-.31.07-.13.1-.28.1-.47s-.03-.34-.1-.47c-.07-.13-.15-.23-.25-.31-.1-.08-.2-.13-.31-.17-.11-.03-.21-.05-.29-.05-.08,0-.16,0-.24.02-.08.01-.16.03-.22.04v1.87c.06.02.14.03.22.04s.17.02.24.02Z"/>
        <path class="cls-28" d="m318.92,205.21h2.2v.25h-2.76v-3.36c0-.19-.03-.34-.08-.45-.05-.11-.17-.17-.36-.17h-.12v-.12h.56c.11,0,.2,0,.27.03s.13.06.17.11.07.13.09.23c.02.1.02.22.02.38v3.11Z"/>
        <path class="cls-28" d="m325.27,205.46c-.07.02-.15.03-.25.03-.07,0-.15,0-.24-.02s-.19-.05-.28-.11-.19-.14-.28-.25c-.09-.11-.17-.25-.24-.43l-.15-.4h-1.73l-.5,1.18h-.28l1.73-4.11h.19l1.36,3.33c.05.12.1.21.14.3s.09.15.15.2c.05.05.11.09.17.11s.14.04.22.05v.12Zm-3.1-1.43h1.52l-.74-1.81-.77,1.81Z"/>
        <path class="cls-28" d="m326.91,203.44l1.29-2.09h.28l-1.45,2.37v1.74h-.56v-1.7l-1.05-1.6c-.06-.09-.12-.18-.18-.26-.06-.08-.12-.15-.19-.21-.07-.06-.15-.11-.23-.15-.08-.04-.18-.06-.29-.07v-.12h.56c.12,0,.22.02.31.06.09.04.17.09.25.16s.14.14.2.22.12.17.17.25l.9,1.4Z"/>
        <path class="cls-28" d="m332.12,205.46c-.07.02-.15.03-.25.03-.07,0-.15,0-.24-.02s-.19-.05-.28-.11-.19-.14-.28-.25c-.09-.11-.17-.25-.24-.43l-.15-.4h-1.73l-.5,1.18h-.28l1.73-4.11h.19l1.36,3.33c.05.12.1.21.14.3s.09.15.15.2c.05.05.11.09.17.11s.14.04.22.05v.12Zm-3.1-1.43h1.52l-.74-1.81-.77,1.81Z"/>
        <path class="cls-28" d="m333.7,204.59c.1-.24.19-.44.26-.59s.12-.28.17-.39c.04-.1.08-.19.11-.26.03-.07.06-.14.09-.21s.06-.14.09-.23c.03-.08.08-.19.13-.32.06-.13.12-.3.21-.5.08-.2.19-.45.31-.74h.3l-1.78,4.17h-.11l-1.44-3.44c-.05-.12-.1-.21-.14-.3-.04-.08-.09-.15-.15-.2-.05-.05-.11-.09-.17-.11s-.14-.04-.22-.05v-.12s.05,0,.1,0c.05,0,.09,0,.11,0,.07,0,.16,0,.25.02.09.02.19.05.29.11.1.05.19.13.28.24.09.1.18.25.25.42l1.06,2.51Z"/>
        <path class="cls-28" d="m335.99,201.35h.56v3.36c0,.19.03.34.08.45.05.11.17.17.36.17h.12v.12h-.56c-.11,0-.2,0-.27-.03s-.13-.06-.17-.11-.07-.13-.09-.23c-.02-.1-.02-.22-.02-.38v-3.36Z"/>
        <path class="cls-28" d="m339.37,204.59c.1-.24.19-.44.26-.59s.12-.28.17-.39c.04-.1.08-.19.11-.26.03-.07.06-.14.09-.21s.06-.14.09-.23c.03-.08.08-.19.13-.32.06-.13.12-.3.21-.5.08-.2.19-.45.31-.74h.3l-1.78,4.17h-.11l-1.44-3.44c-.05-.12-.1-.21-.14-.3s-.09-.15-.15-.2c-.05-.05-.11-.09-.17-.11s-.14-.04-.22-.05v-.12s.05,0,.1,0c.05,0,.09,0,.11,0,.07,0,.16,0,.25.02.09.02.19.05.29.11.1.05.19.13.28.24.09.1.18.25.25.42l1.06,2.51Z"/>
        <path class="cls-28" d="m344.75,205.46c-.07.02-.15.03-.25.03-.07,0-.15,0-.24-.02s-.19-.05-.28-.11-.19-.14-.28-.25c-.09-.11-.17-.25-.24-.43l-.15-.4h-1.73l-.5,1.18h-.28l1.73-4.11h.19l1.36,3.33c.05.12.1.21.14.3s.09.15.15.2c.05.05.11.09.17.11s.14.04.22.05v.12Zm-3.1-1.43h1.52l-.74-1.81-.77,1.81Z"/>
      </g>
      <text class="cls-4" transform="translate(314.87 207.87)"><tspan class="cls-39" x="0" y="0">BE</tspan><tspan class="cls-37" x="3.09" y="0">A</tspan><tspan class="cls-39" x="4.8" y="0">CH C</tspan><tspan class="cls-51" x="10.89" y="0">L</tspan><tspan class="cls-39" x="12.28" y="0">UB •</tspan><tspan class="cls-35" x="17.69" y="0"> </tspan><tspan class="cls-39" x="18.55" y="0">TE</tspan><tspan class="cls-40" x="21.55" y="0">L</tspan><tspan class="cls-39" x="22.93" y="0">CH</tspan><tspan class="cls-37" x="26.41" y="0">A</tspan><tspan class="cls-39" x="28.12" y="0">C</tspan></text>
    </g>
  </g>
  <g>
    <path class="cls-2" d="m587.35,454.69c1.15,7.31,8.72,12.15,15.84,10.11,6.1-1.75,9.95-7.32,9.21-13.64-.61-5.17-3.53-8.68-8.39-10.52-1.01-.38-2.11-.5-3.18-.73h-1.98c-.6.1-1.21.18-1.81.32-6.62,1.57-10.75,7.73-9.7,14.46Zm17.22,3.79c-.79,0-1.56.02-2.33-.02-.13,0-.28-.19-.37-.33-1.26-1.98-2.5-3.97-3.75-5.96-.08-.13-.17-.26-.34-.5v6.69h-2.66v-12.09c.78,0,1.55-.02,2.32.02.13,0,.28.19.37.33,1.26,1.98,2.5,3.97,3.75,5.96.09.14.18.27.33.5v-6.7h2.68v12.1Z"/>
    <path class="cls-2" d="m599.47,435.7c.25-.06.54-.04.78.02,2.59.66,5.18,1.34,7.76,2.02.1.03.2.04.36.08-2.85-5.96-5.67-11.87-8.53-17.87-2.87,6-5.69,11.91-8.54,17.89,1.49-.39,2.9-.75,4.31-1.12,1.29-.34,2.57-.69,3.86-1.01Z"/>
  </g>
</svg>